<svg xmlns="http://www.w3.org/2000/svg" xmlns:xlink="http://www.w3.org/1999/xlink" xmlns:lucid="lucid" width="1620" height="918.83"><g transform="translate(-120 -58.170945311666316)" lucid:page-tab-id="0_0"><path d="M0 0h1870.87v1322.83H0z" fill="#fff"/><path d="M423.15 86.17c0-4.42 3.58-8 8-8h836.75c4.4 0 8 3.58 8 8v28.8c0 4.43-3.6 8-8 8H431.15c-4.42 0-8-3.57-8-8z" stroke="#000" stroke-opacity="0" stroke-width="2" fill="#fff" fill-opacity="0"/><use xlink:href="#a" transform="matrix(1,0,0,1,427.14655278534315,82.17094531166632) translate(318.2988888888889 23.657777777777774)"/><use xlink:href="#b" transform="matrix(1,0,0,1,427.14655278534315,82.17094531166632) translate(376.35197530864195 23.657777777777774)"/><use xlink:href="#c" transform="matrix(1,0,0,1,427.14655278534315,82.17094531166632) translate(478.1087654320987 23.657777777777774)"/><path d="M682.2 121.52h357.37M682.22 121.52h-1.02M1039.54 121.52h1.03" stroke="#a9afb8" stroke-width="2" fill="none"/><path d="M423.15 129.16c0-4.42 3.58-8 8-8h837.7c4.42 0 8 3.58 8 8V132c0 4.42-3.58 8-8 8h-837.7c-4.42 0-8-3.58-8-8z" stroke="#000" stroke-opacity="0" stroke-width="2" fill="#fff" fill-opacity="0"/><path d="M140 206c0-3.3 2.7-6 6-6h388c3.3 0 6 2.7 6 6v498c0 3.3-2.7 6-6 6H146c-3.3 0-6-2.7-6-6z" fill="#fff"/><path d="M140 200h400v40H140z" fill="#ccc"/><path d="M140 206c0-3.3 2.7-6 6-6h388c3.3 0 6 2.7 6 6v498c0 3.3-2.7 6-6 6H146c-3.3 0-6-2.7-6-6zM140 240h400M200 240v470M370 240v470" stroke="#5e5e5e" stroke-width="3" fill="none"/><use xlink:href="#d" transform="matrix(1,0,0,1,150,200) translate(160.1574074074074 24.88888888888889)"/><use xlink:href="#e" transform="matrix(1,0,0,1,145,242.5) translate(8.703703703703702 21.88888888888889)"/><use xlink:href="#f" transform="matrix(1,0,0,1,205,242.5) translate(0 21.88888888888889)"/><use xlink:href="#g" transform="matrix(1,0,0,1,375,242.5) translate(0 21.88888888888889)"/><use xlink:href="#h" transform="matrix(1,0,0,1,205,281.5) translate(0 21.88888888888889)"/><use xlink:href="#g" transform="matrix(1,0,0,1,375,281.5) translate(0 21.88888888888889)"/><use xlink:href="#i" transform="matrix(1,0,0,1,205,320.5) translate(0 21.88888888888889)"/><use xlink:href="#g" transform="matrix(1,0,0,1,375,320.5) translate(0 21.88888888888889)"/><use xlink:href="#j" transform="matrix(1,0,0,1,205,359.5) translate(0 21.88888888888889)"/><use xlink:href="#k" transform="matrix(1,0,0,1,375,359.5) translate(0 21.88888888888889)"/><use xlink:href="#l" transform="matrix(1,0,0,1,205,398.5) translate(0 21.88888888888889)"/><use xlink:href="#k" transform="matrix(1,0,0,1,375,398.5) translate(0 21.88888888888889)"/><use xlink:href="#m" transform="matrix(1,0,0,1,205,437.5) translate(0 21.88888888888889)"/><use xlink:href="#n" transform="matrix(1,0,0,1,375,437.5) translate(0 21.88888888888889)"/><use xlink:href="#o" transform="matrix(1,0,0,1,205,476.5) translate(0 21.88888888888889)"/><use xlink:href="#k" transform="matrix(1,0,0,1,375,476.5) translate(0 21.88888888888889)"/><use xlink:href="#p" transform="matrix(1,0,0,1,205,515.5) translate(0 21.88888888888889)"/><use xlink:href="#k" transform="matrix(1,0,0,1,375,515.5) translate(0 21.88888888888889)"/><use xlink:href="#q" transform="matrix(1,0,0,1,205,554.5) translate(0 21.88888888888889)"/><use xlink:href="#r" transform="matrix(1,0,0,1,375,554.5) translate(0 21.88888888888889)"/><use xlink:href="#s" transform="matrix(1,0,0,1,205,593.5) translate(0 21.88888888888889)"/><use xlink:href="#t" transform="matrix(1,0,0,1,375,593.5) translate(0 21.88888888888889)"/><use xlink:href="#u" transform="matrix(1,0,0,1,205,632.5) translate(0 22.433333333333334)"/><use xlink:href="#v" transform="matrix(1,0,0,1,375,632.5) translate(0 21.988888888888887)"/><use xlink:href="#w" transform="matrix(1,0,0,1,145,672.5) translate(9.275000000000002 22.433333333333334)"/><use xlink:href="#x" transform="matrix(1,0,0,1,205,672.5) translate(0 22.433333333333334)"/><use xlink:href="#y" transform="matrix(1,0,0,1,375,672.5) translate(0 22.433333333333334)"/><path d="M140 806c0-3.3 2.7-6 6-6h388c3.3 0 6 2.7 6 6v145c0 3.3-2.7 6-6 6H146c-3.3 0-6-2.7-6-6z" fill="#fff"/><path d="M140 800h400v40H140z" fill="#ccc"/><path d="M140 806c0-3.3 2.7-6 6-6h388c3.3 0 6 2.7 6 6v145c0 3.3-2.7 6-6 6H146c-3.3 0-6-2.7-6-6zM140 840h400M200 840v117M370 840v117" stroke="#5e5e5e" stroke-width="3" fill="none"/><use xlink:href="#z" transform="matrix(1,0,0,1,150,800) translate(160.80246913580248 24.88888888888889)"/><use xlink:href="#e" transform="matrix(1,0,0,1,145,842.5) translate(8.703703703703702 21.88888888888889)"/><use xlink:href="#f" transform="matrix(1,0,0,1,205,842.5) translate(0 21.88888888888889)"/><use xlink:href="#g" transform="matrix(1,0,0,1,375,842.5) translate(0 21.88888888888889)"/><use xlink:href="#e" transform="matrix(1,0,0,1,145,881.5) translate(8.703703703703702 21.88888888888889)"/><use xlink:href="#A" transform="matrix(1,0,0,1,205,881.5) translate(0 21.88888888888889)"/><use xlink:href="#B" transform="matrix(1,0,0,1,375,881.5) translate(0 21.88888888888889)"/><use xlink:href="#C" transform="matrix(1,0,0,1,205,920.5) translate(0 21.88888888888889)"/><use xlink:href="#g" transform="matrix(1,0,0,1,375,920.5) translate(0 21.88888888888889)"/><path d="M735.43 589c0-3.3 2.7-6 6-6h388c3.32 0 6 2.7 6 6v362c0 3.3-2.68 6-6 6h-388c-3.3 0-6-2.7-6-6z" fill="#fff"/><path d="M735.43 583h400v42h-400z" fill="#ccc"/><path d="M735.43 589c0-3.3 2.7-6 6-6h388c3.32 0 6 2.7 6 6v362c0 3.3-2.68 6-6 6h-388c-3.3 0-6-2.7-6-6zM735.43 625h400M795.43 625v332M965.43 625v332" stroke="#5e5e5e" stroke-width="3" fill="none"/><use xlink:href="#D" transform="matrix(1,0,0,1,745.4330708661416,583.0000000000001) translate(158.14814814814815 26.333333333333332)"/><use xlink:href="#E" transform="matrix(1,0,0,1,740.4330708661416,627.5000000000001) translate(7.222222222222221 23.833333333333332)"/><use xlink:href="#F" transform="matrix(1,0,0,1,800.4330708661416,627.5000000000001) translate(0 23.833333333333332)"/><use xlink:href="#G" transform="matrix(1,0,0,1,970.4330708661416,627.5000000000001) translate(0 23.833333333333332)"/><use xlink:href="#H" transform="matrix(1,0,0,1,800.4330708661416,669.5000000000001) translate(0 23.833333333333332)"/><use xlink:href="#I" transform="matrix(1,0,0,1,970.4330708661416,669.5000000000001) translate(0 23.833333333333332)"/><use xlink:href="#J" transform="matrix(1,0,0,1,800.4330708661416,711.5000000000001) translate(0 23.38888888888889)"/><use xlink:href="#I" transform="matrix(1,0,0,1,970.4330708661416,711.5000000000001) translate(0 23.833333333333332)"/><use xlink:href="#K" transform="matrix(1,0,0,1,800.4330708661416,753.5000000000001) translate(0 22.43333333333333)"/><use xlink:href="#L" transform="matrix(1,0,0,1,970.4330708661416,753.5000000000001) translate(0 22.43333333333333)"/><use xlink:href="#M" transform="matrix(1,0,0,1,800.4330708661416,793.5000000000001) translate(0 22.43333333333333)"/><use xlink:href="#L" transform="matrix(1,0,0,1,970.4330708661416,793.5000000000001) translate(0 22.43333333333333)"/><use xlink:href="#N" transform="matrix(1,0,0,1,800.4330708661416,833.5000000000001) translate(0 23.833333333333332)"/><use xlink:href="#O" transform="matrix(1,0,0,1,970.4330708661416,833.5000000000001) translate(0 23.833333333333332)"/><use xlink:href="#P" transform="matrix(1,0,0,1,740.4330708661416,875.5000000000001) translate(8 23.833333333333332)"/><use xlink:href="#Q" transform="matrix(1,0,0,1,800.4330708661416,875.5000000000001) translate(0 23.833333333333332)"/><use xlink:href="#I" transform="matrix(1,0,0,1,970.4330708661416,875.5000000000001) translate(0 23.833333333333332)"/><use xlink:href="#P" transform="matrix(1,0,0,1,740.4330708661416,917.5000000000001) translate(8 23.833333333333332)"/><use xlink:href="#R" transform="matrix(1,0,0,1,800.4330708661416,917.5000000000001) translate(0 23.833333333333332)"/><use xlink:href="#S" transform="matrix(1,0,0,1,970.4330708661416,917.5000000000001) translate(0 23.833333333333332)"/><path d="M735.43 206c0-3.3 2.7-6 6-6h388c3.32 0 6 2.7 6 6v145c0 3.3-2.68 6-6 6h-388c-3.3 0-6-2.7-6-6z" fill="#fff"/><path d="M735.43 200h400v40h-400z" fill="#ccc"/><path d="M735.43 206c0-3.3 2.7-6 6-6h388c3.32 0 6 2.7 6 6v145c0 3.3-2.68 6-6 6h-388c-3.3 0-6-2.7-6-6zM735.43 240h400M795.43 240v117M965.43 240v117" stroke="#5e5e5e" stroke-width="3" fill="none"/><use xlink:href="#T" transform="matrix(1,0,0,1,745.4330708661416,200) translate(153.33333333333331 24.88888888888889)"/><use xlink:href="#e" transform="matrix(1,0,0,1,740.4330708661416,242.5) translate(8.703703703703702 21.88888888888889)"/><use xlink:href="#U" transform="matrix(1,0,0,1,800.4330708661416,242.5) translate(0 21.88888888888889)"/><use xlink:href="#B" transform="matrix(1,0,0,1,970.4330708661416,242.5) translate(0 21.88888888888889)"/><use xlink:href="#V" transform="matrix(1,0,0,1,800.4330708661416,281.5) translate(0 21.88888888888889)"/><use xlink:href="#g" transform="matrix(1,0,0,1,970.4330708661416,281.5) translate(0 21.88888888888889)"/><use xlink:href="#W" transform="matrix(1,0,0,1,800.4330708661416,320.5) translate(0 21.88888888888889)"/><use xlink:href="#t" transform="matrix(1,0,0,1,970.4330708661416,320.5) translate(0 21.88888888888889)"/><path d="M340 731.5v48.18" stroke="#5e5e5e" stroke-width="2" fill="none"/><path d="M330 731.5h20M340 711.5v20M330 798.05l10-20 10 20M340 798.05v-20" stroke="#5e5e5e" stroke-width="2" fill="#fff"/><path d="M561.5 298.5h152.43" stroke="#5e5e5e" stroke-width="2" fill="none"/><path d="M561.5 308.5v-20M541.5 298.5h20M713.93 288.5v20M733.93 298.5h-20" stroke="#5e5e5e" stroke-width="2" fill="#fff"/><path d="M935.43 378.5v183" stroke="#5e5e5e" stroke-width="2" fill="none"/><path d="M925.43 378.5h20M935.43 358.5v20M945.43 561.5h-20M935.43 581.5v-20" stroke="#5e5e5e" stroke-width="2" fill="#fff"/><path d="M1320 589c0-3.3 2.7-6 6-6h388c3.3 0 6 2.7 6 6v225c0 3.3-2.7 6-6 6h-388c-3.3 0-6-2.7-6-6z" fill="#fff"/><path d="M1320 583h400v40h-400z" fill="#ccc"/><path d="M1320 589c0-3.3 2.7-6 6-6h388c3.3 0 6 2.7 6 6v225c0 3.3-2.7 6-6 6h-388c-3.3 0-6-2.7-6-6zM1320 623h400M1380 623v197M1550 623v197" stroke="#5e5e5e" stroke-width="3" fill="none"/><use xlink:href="#X" transform="matrix(1,0,0,1,1330,583) translate(154.1141975308642 24.88888888888889)"/><use xlink:href="#Y" transform="matrix(1,0,0,1,1325,625.5) translate(8.703703703703702 21.88888888888889)"/><use xlink:href="#Z" transform="matrix(1,0,0,1,1385,625.5) translate(0 21.88888888888889)"/><use xlink:href="#aa" transform="matrix(1,0,0,1,1555,625.5) translate(0 21.88888888888889)"/><use xlink:href="#ab" transform="matrix(1,0,0,1,1385,664.5) translate(0 21.88888888888889)"/><use xlink:href="#ac" transform="matrix(1,0,0,1,1555,664.5) translate(0 21.88888888888889)"/><use xlink:href="#q" transform="matrix(1,0,0,1,1385,703.5) translate(0 21.88888888888889)"/><use xlink:href="#r" transform="matrix(1,0,0,1,1555,703.5) translate(0 21.88888888888889)"/><use xlink:href="#ad" transform="matrix(1,0,0,1,1325,742.5) translate(9.275000000000002 22.433333333333334)"/><use xlink:href="#ae" transform="matrix(1,0,0,1,1385,742.5) translate(0 22.433333333333334)"/><use xlink:href="#af" transform="matrix(1,0,0,1,1555,742.5) translate(0 22.433333333333334)"/><use xlink:href="#ad" transform="matrix(1,0,0,1,1325,782.5) translate(9.275000000000002 22.433333333333334)"/><use xlink:href="#ag" transform="matrix(1,0,0,1,1385,782.5) translate(0 22.433333333333334)"/><use xlink:href="#ah" transform="matrix(1,0,0,1,1555,782.5) translate(0 22.433333333333334)"/><path d="M713.93 876h-153.6" stroke="#5e5e5e" stroke-width="2" fill="none"/><path d="M713.93 866v20M733.93 876h-20M541.95 866l20 10-20 10M541.95 876h20" stroke="#5e5e5e" stroke-width="2" fill="#fff"/><path d="M1156.93 687.4h142.75" stroke="#5e5e5e" stroke-width="2" fill="none"/><path d="M1156.93 697.4v-20M1136.93 687.4h20M1318.05 697.4l-20-10 20-10M1318.05 687.4h-20" stroke="#5e5e5e" stroke-width="2" fill="#fff"/><path d="M561.5 651.46h153.6" stroke="#5e5e5e" stroke-width="2" fill="none"/><path d="M561.5 661.46v-20M541.5 651.46h20M733.5 661.46l-20-10 20-10M733.5 651.46h-20" stroke="#5e5e5e" stroke-width="2" fill="#fff"/><defs><path fill="#a9afb8" d="M24-248c120-7 223 5 221 122C244-46 201 0 124 0H24v-248zM76-40c74 7 117-18 117-86 0-67-45-88-117-82v168" id="ai"/><path fill="#a9afb8" d="M110-194c64 0 96 36 96 99 0 64-35 99-97 99-61 0-95-36-95-99 0-62 34-99 96-99zm-1 164c35 0 45-28 45-65 0-40-10-65-43-65-34 0-45 26-45 65 0 36 10 65 43 65" id="aj"/><path fill="#a9afb8" d="M195-6C206 82 75 100 31 46c-4-6-6-13-8-21l49-6c3 16 16 24 34 25 40 0 42-37 40-79-11 22-30 35-61 35-53 0-70-43-70-97 0-56 18-96 73-97 30 0 46 14 59 34l2-30h47zm-90-29c32 0 41-27 41-63 0-35-9-62-40-62-32 0-39 29-40 63 0 36 9 62 39 62" id="ak"/><g id="a"><use transform="matrix(0.07283950617283949,0,0,0.07283950617283949,0,0)" xlink:href="#ai"/><use transform="matrix(0.07283950617283949,0,0,0.07283950617283949,18.865432098765428,0)" xlink:href="#aj"/><use transform="matrix(0.07283950617283949,0,0,0.07283950617283949,34.81728395061728,0)" xlink:href="#ak"/></g><path fill="#a9afb8" d="M76-208v77h127v40H76V0H24v-248h183v40H76" id="al"/><path fill="#a9afb8" d="M135-150c-39-12-60 13-60 57V0H25l-1-190h47c2 13-1 29 3 40 6-28 27-53 61-41v41" id="am"/><path fill="#a9afb8" d="M25-224v-37h50v37H25zM25 0v-190h50V0H25" id="an"/><path fill="#a9afb8" d="M185-48c-13 30-37 53-82 52C43 2 14-33 14-96s30-98 90-98c62 0 83 45 84 108H66c0 31 8 55 39 56 18 0 30-7 34-22zm-45-69c5-46-57-63-70-21-2 6-4 13-4 21h74" id="ao"/><path fill="#a9afb8" d="M135-194c87-1 58 113 63 194h-50c-7-57 23-157-34-157-59 0-34 97-39 157H25l-1-190h47c2 12-1 28 3 38 12-26 28-41 61-42" id="ap"/><path fill="#a9afb8" d="M88-194c31-1 46 15 58 34l-1-101h50l1 261h-48c-2-10 0-23-3-31C134-8 116 4 84 4 32 4 16-41 15-95c0-56 19-97 73-99zm17 164c33 0 40-30 41-66 1-37-9-64-41-64s-38 30-39 65c0 43 13 65 39 65" id="aq"/><path fill="#a9afb8" d="M137-138c1-29-70-34-71-4 15 46 118 7 119 86 1 83-164 76-172 9l43-7c4 19 20 25 44 25 33 8 57-30 24-41C81-84 22-81 20-136c-2-80 154-74 161-7" id="ar"/><g id="b"><use transform="matrix(0.07283950617283949,0,0,0.07283950617283949,0,0)" xlink:href="#al"/><use transform="matrix(0.07283950617283949,0,0,0.07283950617283949,15.951851851851849,0)" xlink:href="#am"/><use transform="matrix(0.07283950617283949,0,0,0.07283950617283949,26.149382716049377,0)" xlink:href="#an"/><use transform="matrix(0.07283950617283949,0,0,0.07283950617283949,33.43333333333332,0)" xlink:href="#ao"/><use transform="matrix(0.07283950617283949,0,0,0.07283950617283949,48.00123456790122,0)" xlink:href="#ap"/><use transform="matrix(0.07283950617283949,0,0,0.07283950617283949,63.95308641975307,0)" xlink:href="#aq"/><use transform="matrix(0.07283950617283949,0,0,0.07283950617283949,79.90493827160492,0)" xlink:href="#ar"/></g><path fill="#a9afb8" d="M24 0v-248h195v40H76v63h132v40H76v65h150V0H24" id="as"/><path fill="#a9afb8" d="M240-174c0 40-23 61-54 70L253 0h-59l-57-94H76V0H24v-248c93 4 217-23 216 74zM76-134c48-2 112 12 112-38 0-48-66-32-112-35v73" id="at"/><g id="c"><use transform="matrix(0.07283950617283949,0,0,0.07283950617283949,0,0)" xlink:href="#as"/><use transform="matrix(0.07283950617283949,0,0,0.07283950617283949,17.481481481481477,0)" xlink:href="#at"/><use transform="matrix(0.07283950617283949,0,0,0.07283950617283949,36.346913580246905,0)" xlink:href="#ai"/></g><path fill="#333" d="M84 4C-5 8 30-112 23-190h32v120c0 31 7 50 39 49 72-2 45-101 50-169h31l1 190h-30c-1-10 1-25-2-33-11 22-28 36-60 37" id="au"/><path fill="#333" d="M135-143c-3-34-86-38-87 0 15 53 115 12 119 90S17 21 10-45l28-5c4 36 97 45 98 0-10-56-113-15-118-90-4-57 82-63 122-42 12 7 21 19 24 35" id="av"/><path fill="#333" d="M100-194c63 0 86 42 84 106H49c0 40 14 67 53 68 26 1 43-12 49-29l28 8c-11 28-37 45-77 45C44 4 14-33 15-96c1-61 26-98 85-98zm52 81c6-60-76-77-97-28-3 7-6 17-6 28h103" id="aw"/><path fill="#333" d="M114-163C36-179 61-72 57 0H25l-1-190h30c1 12-1 29 2 39 6-27 23-49 58-41v29" id="ax"/><g id="d"><use transform="matrix(0.06790123456790124,0,0,0.06790123456790124,0,0)" xlink:href="#au"/><use transform="matrix(0.06790123456790124,0,0,0.06790123456790124,13.580246913580249,0)" xlink:href="#av"/><use transform="matrix(0.06790123456790124,0,0,0.06790123456790124,25.802469135802472,0)" xlink:href="#aw"/><use transform="matrix(0.06790123456790124,0,0,0.06790123456790124,39.38271604938272,0)" xlink:href="#ax"/><use transform="matrix(0.06790123456790124,0,0,0.06790123456790124,47.46296296296297,0)" xlink:href="#av"/></g><path fill="#333" d="M30-248c87 1 191-15 191 75 0 78-77 80-158 76V0H30v-248zm33 125c57 0 124 11 124-50 0-59-68-47-124-48v98" id="ay"/><path fill="#333" d="M194 0L95-120 63-95V0H30v-248h33v124l119-124h40L117-140 236 0h-42" id="az"/><g id="e"><use transform="matrix(0.06790123456790124,0,0,0.06790123456790124,0,0)" xlink:href="#ay"/><use transform="matrix(0.06790123456790124,0,0,0.06790123456790124,16.296296296296298,0)" xlink:href="#az"/></g><path fill="#333" d="M117-194c89-4 53 116 60 194h-32v-121c0-31-8-49-39-48C34-167 62-67 57 0H25l-1-190h30c1 10-1 24 2 32 11-22 29-35 61-36" id="aA"/><path fill="#333" d="M141-36C126-15 110 5 73 4 37 3 15-17 15-53c-1-64 63-63 125-63 3-35-9-54-41-54-24 1-41 7-42 31l-33-3c5-37 33-52 76-52 45 0 72 20 72 64v82c-1 20 7 32 28 27v20c-31 9-61-2-59-35zM48-53c0 20 12 33 32 33 41-3 63-29 60-74-43 2-92-5-92 41" id="aB"/><path fill="#333" d="M210-169c-67 3-38 105-44 169h-31v-121c0-29-5-50-35-48C34-165 62-65 56 0H25l-1-190h30c1 10-1 24 2 32 10-44 99-50 107 0 11-21 27-35 58-36 85-2 47 119 55 194h-31v-121c0-29-5-49-35-48" id="aC"/><g id="f"><use transform="matrix(0.06790123456790124,0,0,0.06790123456790124,0,0)" xlink:href="#au"/><use transform="matrix(0.06790123456790124,0,0,0.06790123456790124,13.580246913580249,0)" xlink:href="#av"/><use transform="matrix(0.06790123456790124,0,0,0.06790123456790124,25.802469135802472,0)" xlink:href="#aw"/><use transform="matrix(0.06790123456790124,0,0,0.06790123456790124,39.38271604938272,0)" xlink:href="#ax"/><use transform="matrix(0.06790123456790124,0,0,0.06790123456790124,47.46296296296297,0)" xlink:href="#aA"/><use transform="matrix(0.06790123456790124,0,0,0.06790123456790124,61.043209876543216,0)" xlink:href="#aB"/><use transform="matrix(0.06790123456790124,0,0,0.06790123456790124,74.62345679012347,0)" xlink:href="#aC"/><use transform="matrix(0.06790123456790124,0,0,0.06790123456790124,94.92592592592594,0)" xlink:href="#aw"/></g><path fill="#333" d="M59-47c-2 24 18 29 38 22v24C64 9 27 4 27-40v-127H5v-23h24l9-43h21v43h35v23H59v120" id="aD"/><path fill="#333" d="M141 0L90-78 38 0H4l68-98-65-92h35l48 74 47-74h35l-64 92 68 98h-35" id="aE"/><g id="g"><use transform="matrix(0.06790123456790124,0,0,0.06790123456790124,0,0)" xlink:href="#aD"/><use transform="matrix(0.06790123456790124,0,0,0.06790123456790124,6.790123456790124,0)" xlink:href="#aw"/><use transform="matrix(0.06790123456790124,0,0,0.06790123456790124,20.370370370370374,0)" xlink:href="#aE"/><use transform="matrix(0.06790123456790124,0,0,0.06790123456790124,32.592592592592595,0)" xlink:href="#aD"/></g><path fill="#333" d="M115-194c55 1 70 41 70 98S169 2 115 4C84 4 66-9 55-30l1 105H24l-1-265h31l2 30c10-21 28-34 59-34zm-8 174c40 0 45-34 45-75s-6-73-45-74c-42 0-51 32-51 76 0 43 10 73 51 73" id="aF"/><path fill="#333" d="M206 0h-36l-40-164L89 0H53L-1-190h32L70-26l43-164h34l41 164 42-164h31" id="aG"/><path fill="#333" d="M100-194c62-1 85 37 85 99 1 63-27 99-86 99S16-35 15-95c0-66 28-99 85-99zM99-20c44 1 53-31 53-75 0-43-8-75-51-75s-53 32-53 75 10 74 51 75" id="aH"/><path fill="#333" d="M85-194c31 0 48 13 60 33l-1-100h32l1 261h-30c-2-10 0-23-3-31C134-8 116 4 85 4 32 4 16-35 15-94c0-66 23-100 70-100zm9 24c-40 0-46 34-46 75 0 40 6 74 45 74 42 0 51-32 51-76 0-42-9-74-50-73" id="aI"/><g id="h"><use transform="matrix(0.06790123456790124,0,0,0.06790123456790124,0,0)" xlink:href="#aF"/><use transform="matrix(0.06790123456790124,0,0,0.06790123456790124,13.580246913580249,0)" xlink:href="#aB"/><use transform="matrix(0.06790123456790124,0,0,0.06790123456790124,27.160493827160497,0)" xlink:href="#av"/><use transform="matrix(0.06790123456790124,0,0,0.06790123456790124,39.38271604938272,0)" xlink:href="#av"/><use transform="matrix(0.06790123456790124,0,0,0.06790123456790124,51.604938271604944,0)" xlink:href="#aG"/><use transform="matrix(0.06790123456790124,0,0,0.06790123456790124,69.19135802469137,0)" xlink:href="#aH"/><use transform="matrix(0.06790123456790124,0,0,0.06790123456790124,82.77160493827162,0)" xlink:href="#ax"/><use transform="matrix(0.06790123456790124,0,0,0.06790123456790124,90.85185185185188,0)" xlink:href="#aI"/></g><path fill="#333" d="M101-234c-31-9-42 10-38 44h38v23H63V0H32v-167H5v-23h27c-7-52 17-82 69-68v24" id="aJ"/><path fill="#333" d="M24-231v-30h32v30H24zM24 0v-190h32V0H24" id="aK"/><path fill="#333" d="M-5 72V49h209v23H-5" id="aL"/><g id="i"><use transform="matrix(0.06790123456790124,0,0,0.06790123456790124,0,0)" xlink:href="#aJ"/><use transform="matrix(0.06790123456790124,0,0,0.06790123456790124,6.790123456790124,0)" xlink:href="#aK"/><use transform="matrix(0.06790123456790124,0,0,0.06790123456790124,12.154320987654323,0)" xlink:href="#ax"/><use transform="matrix(0.06790123456790124,0,0,0.06790123456790124,20.23456790123457,0)" xlink:href="#av"/><use transform="matrix(0.06790123456790124,0,0,0.06790123456790124,32.45679012345679,0)" xlink:href="#aD"/><use transform="matrix(0.06790123456790124,0,0,0.06790123456790124,39.24691358024692,0)" xlink:href="#aL"/><use transform="matrix(0.06790123456790124,0,0,0.06790123456790124,52.827160493827165,0)" xlink:href="#aA"/><use transform="matrix(0.06790123456790124,0,0,0.06790123456790124,66.40740740740742,0)" xlink:href="#aB"/><use transform="matrix(0.06790123456790124,0,0,0.06790123456790124,79.98765432098767,0)" xlink:href="#aC"/><use transform="matrix(0.06790123456790124,0,0,0.06790123456790124,100.29012345679014,0)" xlink:href="#aw"/></g><path d="M24 0v-261h32V0H24" id="aM"/><path d="M141-36C126-15 110 5 73 4 37 3 15-17 15-53c-1-64 63-63 125-63 3-35-9-54-41-54-24 1-41 7-42 31l-33-3c5-37 33-52 76-52 45 0 72 20 72 64v82c-1 20 7 32 28 27v20c-31 9-61-2-59-35zM48-53c0 20 12 33 32 33 41-3 63-29 60-74-43 2-92-5-92 41" id="aN"/><path d="M135-143c-3-34-86-38-87 0 15 53 115 12 119 90S17 21 10-45l28-5c4 36 97 45 98 0-10-56-113-15-118-90-4-57 82-63 122-42 12 7 21 19 24 35" id="aO"/><path d="M59-47c-2 24 18 29 38 22v24C64 9 27 4 27-40v-127H5v-23h24l9-43h21v43h35v23H59v120" id="aP"/><path d="M-5 72V49h209v23H-5" id="aQ"/><path d="M117-194c89-4 53 116 60 194h-32v-121c0-31-8-49-39-48C34-167 62-67 57 0H25l-1-190h30c1 10-1 24 2 32 11-22 29-35 61-36" id="aR"/><path d="M210-169c-67 3-38 105-44 169h-31v-121c0-29-5-50-35-48C34-165 62-65 56 0H25l-1-190h30c1 10-1 24 2 32 10-44 99-50 107 0 11-21 27-35 58-36 85-2 47 119 55 194h-31v-121c0-29-5-49-35-48" id="aS"/><path d="M100-194c63 0 86 42 84 106H49c0 40 14 67 53 68 26 1 43-12 49-29l28 8c-11 28-37 45-77 45C44 4 14-33 15-96c1-61 26-98 85-98zm52 81c6-60-76-77-97-28-3 7-6 17-6 28h103" id="aT"/><g id="j"><use transform="matrix(0.06790123456790124,0,0,0.06790123456790124,0,0)" xlink:href="#aM"/><use transform="matrix(0.06790123456790124,0,0,0.06790123456790124,5.364197530864199,0)" xlink:href="#aN"/><use transform="matrix(0.06790123456790124,0,0,0.06790123456790124,18.944444444444446,0)" xlink:href="#aO"/><use transform="matrix(0.06790123456790124,0,0,0.06790123456790124,31.16666666666667,0)" xlink:href="#aP"/><use transform="matrix(0.06790123456790124,0,0,0.06790123456790124,37.9567901234568,0)" xlink:href="#aQ"/><use transform="matrix(0.06790123456790124,0,0,0.06790123456790124,51.537037037037045,0)" xlink:href="#aR"/><use transform="matrix(0.06790123456790124,0,0,0.06790123456790124,65.11728395061729,0)" xlink:href="#aN"/><use transform="matrix(0.06790123456790124,0,0,0.06790123456790124,78.69753086419755,0)" xlink:href="#aS"/><use transform="matrix(0.06790123456790124,0,0,0.06790123456790124,99.00000000000001,0)" xlink:href="#aT"/></g><path d="M141 0L90-78 38 0H4l68-98-65-92h35l48 74 47-74h35l-64 92 68 98h-35" id="aU"/><g id="k"><use transform="matrix(0.06790123456790124,0,0,0.06790123456790124,0,0)" xlink:href="#aP"/><use transform="matrix(0.06790123456790124,0,0,0.06790123456790124,6.790123456790124,0)" xlink:href="#aT"/><use transform="matrix(0.06790123456790124,0,0,0.06790123456790124,20.370370370370374,0)" xlink:href="#aU"/><use transform="matrix(0.06790123456790124,0,0,0.06790123456790124,32.592592592592595,0)" xlink:href="#aP"/></g><path d="M24-231v-30h32v30H24zM24 0v-190h32V0H24" id="aV"/><g id="l"><use transform="matrix(0.06790123456790124,0,0,0.06790123456790124,0,0)" xlink:href="#aT"/><use transform="matrix(0.06790123456790124,0,0,0.06790123456790124,13.580246913580249,0)" xlink:href="#aS"/><use transform="matrix(0.06790123456790124,0,0,0.06790123456790124,33.88271604938272,0)" xlink:href="#aN"/><use transform="matrix(0.06790123456790124,0,0,0.06790123456790124,47.46296296296297,0)" xlink:href="#aV"/><use transform="matrix(0.06790123456790124,0,0,0.06790123456790124,52.827160493827165,0)" xlink:href="#aM"/></g><path d="M96-169c-40 0-48 33-48 73s9 75 48 75c24 0 41-14 43-38l32 2c-6 37-31 61-74 61-59 0-76-41-82-99-10-93 101-131 147-64 4 7 5 14 7 22l-32 3c-4-21-16-35-41-35" id="aW"/><path d="M179-190L93 31C79 59 56 82 12 73V49c39 6 53-20 64-50L1-190h34L92-34l54-156h33" id="aX"/><g id="m"><use transform="matrix(0.06790123456790124,0,0,0.06790123456790124,0,0)" xlink:href="#aW"/><use transform="matrix(0.06790123456790124,0,0,0.06790123456790124,12.222222222222223,0)" xlink:href="#aV"/><use transform="matrix(0.06790123456790124,0,0,0.06790123456790124,17.58641975308642,0)" xlink:href="#aP"/><use transform="matrix(0.06790123456790124,0,0,0.06790123456790124,24.376543209876544,0)" xlink:href="#aX"/></g><g id="n"><use transform="matrix(0.06790123456790124,0,0,0.06790123456790124,0,0)" xlink:href="#aP"/><use transform="matrix(0.06790123456790124,0,0,0.06790123456790124,6.790123456790124,0)" xlink:href="#aT"/><use transform="matrix(0.06790123456790124,0,0,0.06790123456790124,20.370370370370374,0)" xlink:href="#aU"/><use transform="matrix(0.06790123456790124,0,0,0.06790123456790124,32.592592592592595,0)" xlink:href="#aP"/></g><g id="o"><use transform="matrix(0.06790123456790124,0,0,0.06790123456790124,0,0)" xlink:href="#aO"/><use transform="matrix(0.06790123456790124,0,0,0.06790123456790124,12.222222222222223,0)" xlink:href="#aP"/><use transform="matrix(0.06790123456790124,0,0,0.06790123456790124,19.01234567901235,0)" xlink:href="#aN"/><use transform="matrix(0.06790123456790124,0,0,0.06790123456790124,32.592592592592595,0)" xlink:href="#aP"/><use transform="matrix(0.06790123456790124,0,0,0.06790123456790124,39.38271604938272,0)" xlink:href="#aT"/></g><path d="M100-194c62-1 85 37 85 99 1 63-27 99-86 99S16-35 15-95c0-66 28-99 85-99zM99-20c44 1 53-31 53-75 0-43-8-75-51-75s-53 32-53 75 10 74 51 75" id="aY"/><path d="M84 4C-5 8 30-112 23-190h32v120c0 31 7 50 39 49 72-2 45-101 50-169h31l1 190h-30c-1-10 1-25-2-33-11 22-28 36-60 37" id="aZ"/><path d="M114-163C36-179 61-72 57 0H25l-1-190h30c1 12-1 29 2 39 6-27 23-49 58-41v29" id="ba"/><g id="p"><use transform="matrix(0.06790123456790124,0,0,0.06790123456790124,0,0)" xlink:href="#aW"/><use transform="matrix(0.06790123456790124,0,0,0.06790123456790124,12.222222222222223,0)" xlink:href="#aY"/><use transform="matrix(0.06790123456790124,0,0,0.06790123456790124,25.802469135802472,0)" xlink:href="#aZ"/><use transform="matrix(0.06790123456790124,0,0,0.06790123456790124,39.38271604938272,0)" xlink:href="#aR"/><use transform="matrix(0.06790123456790124,0,0,0.06790123456790124,52.96296296296297,0)" xlink:href="#aP"/><use transform="matrix(0.06790123456790124,0,0,0.06790123456790124,59.753086419753096,0)" xlink:href="#ba"/><use transform="matrix(0.06790123456790124,0,0,0.06790123456790124,67.83333333333334,0)" xlink:href="#aX"/></g><path d="M85-194c31 0 48 13 60 33l-1-100h32l1 261h-30c-2-10 0-23-3-31C134-8 116 4 85 4 32 4 16-35 15-94c0-66 23-100 70-100zm9 24c-40 0-46 34-46 75 0 40 6 74 45 74 42 0 51-32 51-76 0-42-9-74-50-73" id="bb"/><g id="q"><use transform="matrix(0.06790123456790124,0,0,0.06790123456790124,0,0)" xlink:href="#aW"/><use transform="matrix(0.06790123456790124,0,0,0.06790123456790124,12.222222222222223,0)" xlink:href="#ba"/><use transform="matrix(0.06790123456790124,0,0,0.06790123456790124,20.302469135802472,0)" xlink:href="#aT"/><use transform="matrix(0.06790123456790124,0,0,0.06790123456790124,33.88271604938272,0)" xlink:href="#aN"/><use transform="matrix(0.06790123456790124,0,0,0.06790123456790124,47.46296296296297,0)" xlink:href="#aP"/><use transform="matrix(0.06790123456790124,0,0,0.06790123456790124,54.253086419753096,0)" xlink:href="#aT"/><use transform="matrix(0.06790123456790124,0,0,0.06790123456790124,67.83333333333334,0)" xlink:href="#bb"/><use transform="matrix(0.06790123456790124,0,0,0.06790123456790124,81.4135802469136,0)" xlink:href="#aQ"/><use transform="matrix(0.06790123456790124,0,0,0.06790123456790124,94.99382716049385,0)" xlink:href="#aY"/><use transform="matrix(0.06790123456790124,0,0,0.06790123456790124,108.5740740740741,0)" xlink:href="#aR"/></g><g id="r"><use transform="matrix(0.06790123456790124,0,0,0.06790123456790124,0,0)" xlink:href="#bb"/><use transform="matrix(0.06790123456790124,0,0,0.06790123456790124,13.580246913580249,0)" xlink:href="#aN"/><use transform="matrix(0.06790123456790124,0,0,0.06790123456790124,27.160493827160497,0)" xlink:href="#aP"/><use transform="matrix(0.06790123456790124,0,0,0.06790123456790124,33.95061728395062,0)" xlink:href="#aT"/></g><path d="M115-194c55 1 70 41 70 98S169 2 115 4C84 4 66-9 55-30l1 105H24l-1-265h31l2 30c10-21 28-34 59-34zm-8 174c40 0 45-34 45-75s-6-73-45-74c-42 0-51 32-51 76 0 43 10 73 51 73" id="bc"/><g id="s"><use transform="matrix(0.06790123456790124,0,0,0.06790123456790124,0,0)" xlink:href="#aZ"/><use transform="matrix(0.06790123456790124,0,0,0.06790123456790124,13.580246913580249,0)" xlink:href="#bc"/><use transform="matrix(0.06790123456790124,0,0,0.06790123456790124,27.160493827160497,0)" xlink:href="#bb"/><use transform="matrix(0.06790123456790124,0,0,0.06790123456790124,40.74074074074075,0)" xlink:href="#aN"/><use transform="matrix(0.06790123456790124,0,0,0.06790123456790124,54.320987654320994,0)" xlink:href="#aP"/><use transform="matrix(0.06790123456790124,0,0,0.06790123456790124,61.11111111111112,0)" xlink:href="#aT"/><use transform="matrix(0.06790123456790124,0,0,0.06790123456790124,74.69135802469137,0)" xlink:href="#bb"/><use transform="matrix(0.06790123456790124,0,0,0.06790123456790124,88.27160493827162,0)" xlink:href="#aQ"/><use transform="matrix(0.06790123456790124,0,0,0.06790123456790124,101.85185185185188,0)" xlink:href="#aY"/><use transform="matrix(0.06790123456790124,0,0,0.06790123456790124,115.43209876543213,0)" xlink:href="#aR"/></g><g id="t"><use transform="matrix(0.06790123456790124,0,0,0.06790123456790124,0,0)" xlink:href="#bb"/><use transform="matrix(0.06790123456790124,0,0,0.06790123456790124,13.580246913580249,0)" xlink:href="#aN"/><use transform="matrix(0.06790123456790124,0,0,0.06790123456790124,27.160493827160497,0)" xlink:href="#aP"/><use transform="matrix(0.06790123456790124,0,0,0.06790123456790124,33.95061728395062,0)" xlink:href="#aT"/></g><g id="u"><use transform="matrix(0.0685185185185185,0,0,0.0685185185185185,0,0)" xlink:href="#aN"/><use transform="matrix(0.0685185185185185,0,0,0.0685185185185185,13.7037037037037,0)" xlink:href="#bb"/><use transform="matrix(0.0685185185185185,0,0,0.0685185185185185,27.4074074074074,0)" xlink:href="#aS"/><use transform="matrix(0.0685185185185185,0,0,0.0685185185185185,47.89444444444443,0)" xlink:href="#aV"/><use transform="matrix(0.0685185185185185,0,0,0.0685185185185185,53.307407407407396,0)" xlink:href="#aR"/></g><path d="M115-194c53 0 69 39 70 98 0 66-23 100-70 100C84 3 66-7 56-30L54 0H23l1-261h32v101c10-23 28-34 59-34zm-8 174c40 0 45-34 45-75 0-40-5-75-45-74-42 0-51 32-51 76 0 43 10 73 51 73" id="bd"/><g id="v"><use transform="matrix(0.06234567901234567,0,0,0.06234567901234567,0,0)" xlink:href="#bd"/><use transform="matrix(0.06234567901234567,0,0,0.06234567901234567,12.469135802469133,0)" xlink:href="#aY"/><use transform="matrix(0.06234567901234567,0,0,0.06234567901234567,24.938271604938265,0)" xlink:href="#aY"/><use transform="matrix(0.06234567901234567,0,0,0.06234567901234567,37.4074074074074,0)" xlink:href="#aM"/><use transform="matrix(0.06234567901234567,0,0,0.06234567901234567,42.332716049382704,0)" xlink:href="#aT"/><use transform="matrix(0.06234567901234567,0,0,0.06234567901234567,54.801851851851836,0)" xlink:href="#aN"/><use transform="matrix(0.06234567901234567,0,0,0.06234567901234567,67.27098765432098,0)" xlink:href="#aR"/></g><path d="M63-220v92h138v28H63V0H30v-248h175v28H63" id="be"/><path d="M194 0L95-120 63-95V0H30v-248h33v124l119-124h40L117-140 236 0h-42" id="bf"/><g id="w"><use transform="matrix(0.0685185185185185,0,0,0.0685185185185185,0,0)" xlink:href="#be"/><use transform="matrix(0.0685185185185185,0,0,0.0685185185185185,15.005555555555553,0)" xlink:href="#bf"/></g><path d="M106-169C34-169 62-67 57 0H25v-261h32l-1 103c12-21 28-36 61-36 89 0 53 116 60 194h-32v-121c2-32-8-49-39-48" id="bg"/><g id="x"><use transform="matrix(0.0685185185185185,0,0,0.0685185185185185,0,0)" xlink:href="#bc"/><use transform="matrix(0.0685185185185185,0,0,0.0685185185185185,13.7037037037037,0)" xlink:href="#bg"/><use transform="matrix(0.0685185185185185,0,0,0.0685185185185185,27.4074074074074,0)" xlink:href="#aY"/><use transform="matrix(0.0685185185185185,0,0,0.0685185185185185,41.11111111111111,0)" xlink:href="#aP"/><use transform="matrix(0.0685185185185185,0,0,0.0685185185185185,47.96296296296295,0)" xlink:href="#aY"/><use transform="matrix(0.0685185185185185,0,0,0.0685185185185185,61.66666666666665,0)" xlink:href="#aQ"/><use transform="matrix(0.0685185185185185,0,0,0.0685185185185185,75.37037037037035,0)" xlink:href="#aV"/><use transform="matrix(0.0685185185185185,0,0,0.0685185185185185,80.78333333333332,0)" xlink:href="#bb"/></g><g id="y"><use transform="matrix(0.0685185185185185,0,0,0.0685185185185185,0,0)" xlink:href="#aZ"/><use transform="matrix(0.0685185185185185,0,0,0.0685185185185185,13.7037037037037,0)" xlink:href="#aZ"/><use transform="matrix(0.0685185185185185,0,0,0.0685185185185185,27.4074074074074,0)" xlink:href="#aV"/><use transform="matrix(0.0685185185185185,0,0,0.0685185185185185,32.82037037037036,0)" xlink:href="#bb"/></g><path fill="#333" d="M108 0H70L1-190h34L89-25l56-165h34" id="bh"/><g id="z"><use transform="matrix(0.06790123456790124,0,0,0.06790123456790124,0,0)" xlink:href="#bh"/><use transform="matrix(0.06790123456790124,0,0,0.06790123456790124,12.222222222222223,0)" xlink:href="#aH"/><use transform="matrix(0.06790123456790124,0,0,0.06790123456790124,25.802469135802472,0)" xlink:href="#aD"/><use transform="matrix(0.06790123456790124,0,0,0.06790123456790124,32.592592592592595,0)" xlink:href="#aw"/><use transform="matrix(0.06790123456790124,0,0,0.06790123456790124,46.17283950617284,0)" xlink:href="#av"/></g><g id="A"><use transform="matrix(0.06790123456790124,0,0,0.06790123456790124,0,0)" xlink:href="#aF"/><use transform="matrix(0.06790123456790124,0,0,0.06790123456790124,13.580246913580249,0)" xlink:href="#aH"/><use transform="matrix(0.06790123456790124,0,0,0.06790123456790124,27.160493827160497,0)" xlink:href="#av"/><use transform="matrix(0.06790123456790124,0,0,0.06790123456790124,39.38271604938272,0)" xlink:href="#aD"/><use transform="matrix(0.06790123456790124,0,0,0.06790123456790124,46.17283950617285,0)" xlink:href="#aL"/><use transform="matrix(0.06790123456790124,0,0,0.06790123456790124,59.753086419753096,0)" xlink:href="#aK"/><use transform="matrix(0.06790123456790124,0,0,0.06790123456790124,65.11728395061729,0)" xlink:href="#aI"/></g><g id="B"><use transform="matrix(0.06790123456790124,0,0,0.06790123456790124,0,0)" xlink:href="#au"/><use transform="matrix(0.06790123456790124,0,0,0.06790123456790124,13.580246913580249,0)" xlink:href="#au"/><use transform="matrix(0.06790123456790124,0,0,0.06790123456790124,27.160493827160497,0)" xlink:href="#aK"/><use transform="matrix(0.06790123456790124,0,0,0.06790123456790124,32.5246913580247,0)" xlink:href="#aI"/></g><path fill="#333" d="M96-169c-40 0-48 33-48 73s9 75 48 75c24 0 41-14 43-38l32 2c-6 37-31 61-74 61-59 0-76-41-82-99-10-93 101-131 147-64 4 7 5 14 7 22l-32 3c-4-21-16-35-41-35" id="bi"/><g id="C"><use transform="matrix(0.06790123456790124,0,0,0.06790123456790124,0,0)" xlink:href="#aI"/><use transform="matrix(0.06790123456790124,0,0,0.06790123456790124,13.580246913580249,0)" xlink:href="#aK"/><use transform="matrix(0.06790123456790124,0,0,0.06790123456790124,18.944444444444446,0)" xlink:href="#ax"/><use transform="matrix(0.06790123456790124,0,0,0.06790123456790124,27.024691358024697,0)" xlink:href="#aw"/><use transform="matrix(0.06790123456790124,0,0,0.06790123456790124,40.604938271604944,0)" xlink:href="#bi"/><use transform="matrix(0.06790123456790124,0,0,0.06790123456790124,52.827160493827165,0)" xlink:href="#aD"/><use transform="matrix(0.06790123456790124,0,0,0.06790123456790124,59.61728395061729,0)" xlink:href="#aK"/><use transform="matrix(0.06790123456790124,0,0,0.06790123456790124,64.9814814814815,0)" xlink:href="#aH"/><use transform="matrix(0.06790123456790124,0,0,0.06790123456790124,78.56172839506175,0)" xlink:href="#aA"/></g><g id="D"><use transform="matrix(0.07407407407407407,0,0,0.07407407407407407,0,0)" xlink:href="#aF"/><use transform="matrix(0.07407407407407407,0,0,0.07407407407407407,14.814814814814813,0)" xlink:href="#aH"/><use transform="matrix(0.07407407407407407,0,0,0.07407407407407407,29.629629629629626,0)" xlink:href="#av"/><use transform="matrix(0.07407407407407407,0,0,0.07407407407407407,42.96296296296296,0)" xlink:href="#aD"/><use transform="matrix(0.07407407407407407,0,0,0.07407407407407407,50.37037037037037,0)" xlink:href="#av"/></g><g id="E"><use transform="matrix(0.07407407407407407,0,0,0.07407407407407407,0,0)" xlink:href="#ay"/><use transform="matrix(0.07407407407407407,0,0,0.07407407407407407,17.77777777777778,0)" xlink:href="#az"/></g><g id="F"><use transform="matrix(0.07407407407407407,0,0,0.07407407407407407,0,0)" xlink:href="#aK"/><use transform="matrix(0.07407407407407407,0,0,0.07407407407407407,5.851851851851851,0)" xlink:href="#aI"/></g><g id="G"><use transform="matrix(0.07407407407407407,0,0,0.07407407407407407,0,0)" xlink:href="#au"/><use transform="matrix(0.07407407407407407,0,0,0.07407407407407407,14.814814814814813,0)" xlink:href="#au"/><use transform="matrix(0.07407407407407407,0,0,0.07407407407407407,29.629629629629626,0)" xlink:href="#aK"/><use transform="matrix(0.07407407407407407,0,0,0.07407407407407407,35.48148148148148,0)" xlink:href="#aI"/></g><g id="H"><use transform="matrix(0.07407407407407407,0,0,0.07407407407407407,0,0)" xlink:href="#aP"/><use transform="matrix(0.07407407407407407,0,0,0.07407407407407407,7.4074074074074066,0)" xlink:href="#aV"/><use transform="matrix(0.07407407407407407,0,0,0.07407407407407407,13.259259259259258,0)" xlink:href="#aP"/><use transform="matrix(0.07407407407407407,0,0,0.07407407407407407,20.666666666666664,0)" xlink:href="#aM"/><use transform="matrix(0.07407407407407407,0,0,0.07407407407407407,26.518518518518515,0)" xlink:href="#aT"/></g><g id="I"><use transform="matrix(0.07407407407407407,0,0,0.07407407407407407,0,0)" xlink:href="#aP"/><use transform="matrix(0.07407407407407407,0,0,0.07407407407407407,7.4074074074074066,0)" xlink:href="#aT"/><use transform="matrix(0.07407407407407407,0,0,0.07407407407407407,22.22222222222222,0)" xlink:href="#aU"/><use transform="matrix(0.07407407407407407,0,0,0.07407407407407407,35.55555555555556,0)" xlink:href="#aP"/></g><g id="J"><use transform="matrix(0.06790123456790124,0,0,0.06790123456790124,0,0)" xlink:href="#bd"/><use transform="matrix(0.06790123456790124,0,0,0.06790123456790124,13.580246913580249,0)" xlink:href="#aY"/><use transform="matrix(0.06790123456790124,0,0,0.06790123456790124,27.160493827160497,0)" xlink:href="#bb"/><use transform="matrix(0.06790123456790124,0,0,0.06790123456790124,40.74074074074075,0)" xlink:href="#aX"/></g><g id="K"><use transform="matrix(0.06851851851851848,0,0,0.06851851851851848,0,0)" xlink:href="#ba"/><use transform="matrix(0.06851851851851848,0,0,0.06851851851851848,8.153703703703698,0)" xlink:href="#aT"/><use transform="matrix(0.06851851851851848,0,0,0.06851851851851848,21.857407407407393,0)" xlink:href="#bc"/><use transform="matrix(0.06851851851851848,0,0,0.06851851851851848,35.56111111111109,0)" xlink:href="#aM"/><use transform="matrix(0.06851851851851848,0,0,0.06851851851851848,40.97407407407405,0)" xlink:href="#aV"/><use transform="matrix(0.06851851851851848,0,0,0.06851851851851848,46.387037037037004,0)" xlink:href="#aT"/><use transform="matrix(0.06851851851851848,0,0,0.06851851851851848,60.0907407407407,0)" xlink:href="#aO"/></g><g id="L"><use transform="matrix(0.06851851851851848,0,0,0.06851851851851848,0,0)" xlink:href="#aV"/><use transform="matrix(0.06851851851851848,0,0,0.06851851851851848,5.412962962962959,0)" xlink:href="#aR"/><use transform="matrix(0.06851851851851848,0,0,0.06851851851851848,19.116666666666653,0)" xlink:href="#aP"/></g><path d="M108 0H70L1-190h34L89-25l56-165h34" id="bj"/><g id="M"><use transform="matrix(0.06851851851851848,0,0,0.06851851851851848,0,0)" xlink:href="#bj"/><use transform="matrix(0.06851851851851848,0,0,0.06851851851851848,12.333333333333327,0)" xlink:href="#aY"/><use transform="matrix(0.06851851851851848,0,0,0.06851851851851848,26.037037037037027,0)" xlink:href="#aP"/><use transform="matrix(0.06851851851851848,0,0,0.06851851851851848,32.88888888888887,0)" xlink:href="#aT"/><use transform="matrix(0.06851851851851848,0,0,0.06851851851851848,46.59259259259257,0)" xlink:href="#aO"/></g><g id="N"><use transform="matrix(0.07407407407407407,0,0,0.07407407407407407,0,0)" xlink:href="#aW"/><use transform="matrix(0.07407407407407407,0,0,0.07407407407407407,13.333333333333332,0)" xlink:href="#ba"/><use transform="matrix(0.07407407407407407,0,0,0.07407407407407407,22.148148148148145,0)" xlink:href="#aT"/><use transform="matrix(0.07407407407407407,0,0,0.07407407407407407,36.96296296296296,0)" xlink:href="#aN"/><use transform="matrix(0.07407407407407407,0,0,0.07407407407407407,51.77777777777777,0)" xlink:href="#aP"/><use transform="matrix(0.07407407407407407,0,0,0.07407407407407407,59.185185185185176,0)" xlink:href="#aT"/><use transform="matrix(0.07407407407407407,0,0,0.07407407407407407,73.99999999999999,0)" xlink:href="#bb"/><use transform="matrix(0.07407407407407407,0,0,0.07407407407407407,88.8148148148148,0)" xlink:href="#aQ"/><use transform="matrix(0.07407407407407407,0,0,0.07407407407407407,103.6296296296296,0)" xlink:href="#aY"/><use transform="matrix(0.07407407407407407,0,0,0.07407407407407407,118.44444444444441,0)" xlink:href="#aR"/></g><g id="O"><use transform="matrix(0.07407407407407407,0,0,0.07407407407407407,0,0)" xlink:href="#bb"/><use transform="matrix(0.07407407407407407,0,0,0.07407407407407407,14.814814814814813,0)" xlink:href="#aN"/><use transform="matrix(0.07407407407407407,0,0,0.07407407407407407,29.629629629629626,0)" xlink:href="#aP"/><use transform="matrix(0.07407407407407407,0,0,0.07407407407407407,37.03703703703703,0)" xlink:href="#aT"/></g><g id="P"><use transform="matrix(0.07407407407407407,0,0,0.07407407407407407,0,0)" xlink:href="#be"/><use transform="matrix(0.07407407407407407,0,0,0.07407407407407407,16.22222222222222,0)" xlink:href="#bf"/></g><g id="Q"><use transform="matrix(0.07407407407407407,0,0,0.07407407407407407,0,0)" xlink:href="#aZ"/><use transform="matrix(0.07407407407407407,0,0,0.07407407407407407,14.814814814814813,0)" xlink:href="#aO"/><use transform="matrix(0.07407407407407407,0,0,0.07407407407407407,28.148148148148145,0)" xlink:href="#aT"/><use transform="matrix(0.07407407407407407,0,0,0.07407407407407407,42.96296296296296,0)" xlink:href="#ba"/><use transform="matrix(0.07407407407407407,0,0,0.07407407407407407,51.77777777777777,0)" xlink:href="#aR"/><use transform="matrix(0.07407407407407407,0,0,0.07407407407407407,66.5925925925926,0)" xlink:href="#aN"/><use transform="matrix(0.07407407407407407,0,0,0.07407407407407407,81.4074074074074,0)" xlink:href="#aS"/><use transform="matrix(0.07407407407407407,0,0,0.07407407407407407,103.55555555555554,0)" xlink:href="#aT"/></g><g id="R"><use transform="matrix(0.07407407407407407,0,0,0.07407407407407407,0,0)" xlink:href="#bc"/><use transform="matrix(0.07407407407407407,0,0,0.07407407407407407,14.814814814814813,0)" xlink:href="#bg"/><use transform="matrix(0.07407407407407407,0,0,0.07407407407407407,29.629629629629626,0)" xlink:href="#aY"/><use transform="matrix(0.07407407407407407,0,0,0.07407407407407407,44.44444444444444,0)" xlink:href="#aP"/><use transform="matrix(0.07407407407407407,0,0,0.07407407407407407,51.85185185185185,0)" xlink:href="#aY"/><use transform="matrix(0.07407407407407407,0,0,0.07407407407407407,66.66666666666666,0)" xlink:href="#aQ"/><use transform="matrix(0.07407407407407407,0,0,0.07407407407407407,81.48148148148147,0)" xlink:href="#aV"/><use transform="matrix(0.07407407407407407,0,0,0.07407407407407407,87.33333333333331,0)" xlink:href="#bb"/></g><g id="S"><use transform="matrix(0.07407407407407407,0,0,0.07407407407407407,0,0)" xlink:href="#aZ"/><use transform="matrix(0.07407407407407407,0,0,0.07407407407407407,14.814814814814813,0)" xlink:href="#aZ"/><use transform="matrix(0.07407407407407407,0,0,0.07407407407407407,29.629629629629626,0)" xlink:href="#aV"/><use transform="matrix(0.07407407407407407,0,0,0.07407407407407407,35.48148148148148,0)" xlink:href="#bb"/></g><path fill="#333" d="M106-169C34-169 62-67 57 0H25v-261h32l-1 103c12-21 28-36 61-36 89 0 53 116 60 194h-32v-121c2-32-8-49-39-48" id="bk"/><g id="T"><use transform="matrix(0.06790123456790124,0,0,0.06790123456790124,0,0)" xlink:href="#aF"/><use transform="matrix(0.06790123456790124,0,0,0.06790123456790124,13.580246913580249,0)" xlink:href="#bk"/><use transform="matrix(0.06790123456790124,0,0,0.06790123456790124,27.160493827160497,0)" xlink:href="#aH"/><use transform="matrix(0.06790123456790124,0,0,0.06790123456790124,40.74074074074075,0)" xlink:href="#aD"/><use transform="matrix(0.06790123456790124,0,0,0.06790123456790124,47.530864197530875,0)" xlink:href="#aH"/><use transform="matrix(0.06790123456790124,0,0,0.06790123456790124,61.11111111111112,0)" xlink:href="#av"/></g><g id="U"><use transform="matrix(0.06790123456790124,0,0,0.06790123456790124,0,0)" xlink:href="#aK"/><use transform="matrix(0.06790123456790124,0,0,0.06790123456790124,5.364197530864199,0)" xlink:href="#aI"/></g><path fill="#333" d="M24 0v-261h32V0H24" id="bl"/><g id="V"><use transform="matrix(0.06790123456790124,0,0,0.06790123456790124,0,0)" xlink:href="#au"/><use transform="matrix(0.06790123456790124,0,0,0.06790123456790124,13.580246913580249,0)" xlink:href="#ax"/><use transform="matrix(0.06790123456790124,0,0,0.06790123456790124,21.660493827160497,0)" xlink:href="#bl"/></g><g id="W"><use transform="matrix(0.06790123456790124,0,0,0.06790123456790124,0,0)" xlink:href="#aW"/><use transform="matrix(0.06790123456790124,0,0,0.06790123456790124,12.222222222222223,0)" xlink:href="#ba"/><use transform="matrix(0.06790123456790124,0,0,0.06790123456790124,20.302469135802472,0)" xlink:href="#aT"/><use transform="matrix(0.06790123456790124,0,0,0.06790123456790124,33.88271604938272,0)" xlink:href="#aN"/><use transform="matrix(0.06790123456790124,0,0,0.06790123456790124,47.46296296296297,0)" xlink:href="#aP"/><use transform="matrix(0.06790123456790124,0,0,0.06790123456790124,54.253086419753096,0)" xlink:href="#aT"/><use transform="matrix(0.06790123456790124,0,0,0.06790123456790124,67.83333333333334,0)" xlink:href="#bb"/><use transform="matrix(0.06790123456790124,0,0,0.06790123456790124,81.4135802469136,0)" xlink:href="#aQ"/><use transform="matrix(0.06790123456790124,0,0,0.06790123456790124,94.99382716049385,0)" xlink:href="#aY"/><use transform="matrix(0.06790123456790124,0,0,0.06790123456790124,108.5740740740741,0)" xlink:href="#aR"/></g><g id="X"><use transform="matrix(0.06790123456790124,0,0,0.06790123456790124,0,0)" xlink:href="#ax"/><use transform="matrix(0.06790123456790124,0,0,0.06790123456790124,8.080246913580249,0)" xlink:href="#aw"/><use transform="matrix(0.06790123456790124,0,0,0.06790123456790124,21.660493827160497,0)" xlink:href="#aF"/><use transform="matrix(0.06790123456790124,0,0,0.06790123456790124,35.24074074074075,0)" xlink:href="#bl"/><use transform="matrix(0.06790123456790124,0,0,0.06790123456790124,40.604938271604944,0)" xlink:href="#aK"/><use transform="matrix(0.06790123456790124,0,0,0.06790123456790124,45.96913580246914,0)" xlink:href="#aw"/><use transform="matrix(0.06790123456790124,0,0,0.06790123456790124,59.54938271604939,0)" xlink:href="#av"/></g><g id="Y"><use transform="matrix(0.06790123456790124,0,0,0.06790123456790124,0,0)" xlink:href="#ay"/><use transform="matrix(0.06790123456790124,0,0,0.06790123456790124,16.296296296296298,0)" xlink:href="#az"/></g><g id="Z"><use transform="matrix(0.06790123456790124,0,0,0.06790123456790124,0,0)" xlink:href="#aK"/><use transform="matrix(0.06790123456790124,0,0,0.06790123456790124,5.364197530864199,0)" xlink:href="#aI"/></g><g id="aa"><use transform="matrix(0.06790123456790124,0,0,0.06790123456790124,0,0)" xlink:href="#au"/><use transform="matrix(0.06790123456790124,0,0,0.06790123456790124,13.580246913580249,0)" xlink:href="#au"/><use transform="matrix(0.06790123456790124,0,0,0.06790123456790124,27.160493827160497,0)" xlink:href="#aK"/><use transform="matrix(0.06790123456790124,0,0,0.06790123456790124,32.5246913580247,0)" xlink:href="#aI"/></g><path fill="#333" d="M115-194c53 0 69 39 70 98 0 66-23 100-70 100C84 3 66-7 56-30L54 0H23l1-261h32v101c10-23 28-34 59-34zm-8 174c40 0 45-34 45-75 0-40-5-75-45-74-42 0-51 32-51 76 0 43 10 73 51 73" id="bm"/><path fill="#333" d="M179-190L93 31C79 59 56 82 12 73V49c39 6 53-20 64-50L1-190h34L92-34l54-156h33" id="bn"/><g id="ab"><use transform="matrix(0.06790123456790124,0,0,0.06790123456790124,0,0)" xlink:href="#bm"/><use transform="matrix(0.06790123456790124,0,0,0.06790123456790124,13.580246913580249,0)" xlink:href="#aH"/><use transform="matrix(0.06790123456790124,0,0,0.06790123456790124,27.160493827160497,0)" xlink:href="#aI"/><use transform="matrix(0.06790123456790124,0,0,0.06790123456790124,40.74074074074075,0)" xlink:href="#bn"/></g><g id="ac"><use transform="matrix(0.06790123456790124,0,0,0.06790123456790124,0,0)" xlink:href="#aD"/><use transform="matrix(0.06790123456790124,0,0,0.06790123456790124,6.790123456790124,0)" xlink:href="#aw"/><use transform="matrix(0.06790123456790124,0,0,0.06790123456790124,20.370370370370374,0)" xlink:href="#aE"/><use transform="matrix(0.06790123456790124,0,0,0.06790123456790124,32.592592592592595,0)" xlink:href="#aD"/></g><g id="ad"><use transform="matrix(0.0685185185185185,0,0,0.0685185185185185,0,0)" xlink:href="#be"/><use transform="matrix(0.0685185185185185,0,0,0.0685185185185185,15.005555555555553,0)" xlink:href="#bf"/></g><g id="ae"><use transform="matrix(0.0685185185185185,0,0,0.0685185185185185,0,0)" xlink:href="#aZ"/><use transform="matrix(0.0685185185185185,0,0,0.0685185185185185,13.7037037037037,0)" xlink:href="#aO"/><use transform="matrix(0.0685185185185185,0,0,0.0685185185185185,26.03703703703703,0)" xlink:href="#aT"/><use transform="matrix(0.0685185185185185,0,0,0.0685185185185185,39.74074074074073,0)" xlink:href="#ba"/><use transform="matrix(0.0685185185185185,0,0,0.0685185185185185,47.89444444444443,0)" xlink:href="#aR"/><use transform="matrix(0.0685185185185185,0,0,0.0685185185185185,61.598148148148134,0)" xlink:href="#aN"/><use transform="matrix(0.0685185185185185,0,0,0.0685185185185185,75.30185185185184,0)" xlink:href="#aS"/><use transform="matrix(0.0685185185185185,0,0,0.0685185185185185,95.78888888888886,0)" xlink:href="#aT"/></g><g id="af"><use transform="matrix(0.0685185185185185,0,0,0.0685185185185185,0,0)" xlink:href="#aP"/><use transform="matrix(0.0685185185185185,0,0,0.0685185185185185,6.85185185185185,0)" xlink:href="#aT"/><use transform="matrix(0.0685185185185185,0,0,0.0685185185185185,20.555555555555554,0)" xlink:href="#aU"/><use transform="matrix(0.0685185185185185,0,0,0.0685185185185185,32.88888888888888,0)" xlink:href="#aP"/></g><g id="ag"><use transform="matrix(0.0685185185185185,0,0,0.0685185185185185,0,0)" xlink:href="#bc"/><use transform="matrix(0.0685185185185185,0,0,0.0685185185185185,13.7037037037037,0)" xlink:href="#aN"/><use transform="matrix(0.0685185185185185,0,0,0.0685185185185185,27.4074074074074,0)" xlink:href="#ba"/><use transform="matrix(0.0685185185185185,0,0,0.0685185185185185,35.5611111111111,0)" xlink:href="#aT"/><use transform="matrix(0.0685185185185185,0,0,0.0685185185185185,49.264814814814805,0)" xlink:href="#aR"/><use transform="matrix(0.0685185185185185,0,0,0.0685185185185185,62.96851851851851,0)" xlink:href="#aP"/><use transform="matrix(0.0685185185185185,0,0,0.0685185185185185,69.82037037037036,0)" xlink:href="#aQ"/><use transform="matrix(0.0685185185185185,0,0,0.0685185185185185,83.52407407407405,0)" xlink:href="#aV"/><use transform="matrix(0.0685185185185185,0,0,0.0685185185185185,88.93703703703702,0)" xlink:href="#bb"/></g><g id="ah"><use transform="matrix(0.0685185185185185,0,0,0.0685185185185185,0,0)" xlink:href="#aZ"/><use transform="matrix(0.0685185185185185,0,0,0.0685185185185185,13.7037037037037,0)" xlink:href="#aZ"/><use transform="matrix(0.0685185185185185,0,0,0.0685185185185185,27.4074074074074,0)" xlink:href="#aV"/><use transform="matrix(0.0685185185185185,0,0,0.0685185185185185,32.82037037037036,0)" xlink:href="#bb"/></g></defs></g></svg>