<svg xmlns="http://www.w3.org/2000/svg" xmlns:xlink="http://www.w3.org/1999/xlink" xmlns:lucid="lucid" width="1500" height="928.5"><g transform="translate(-130 -50)" lucid:page-tab-id="0_0"><path d="M0 0h2320.5v1360H0z" fill="#fff"/><path d="M453.15 78c0-4.42 3.58-8 8-8h836.75c4.4 0 8 3.58 8 8v25.16c0 4.4-3.6 8-8 8H461.15c-4.42 0-8-3.6-8-8z" stroke="#000" stroke-opacity="0" stroke-width="2" fill="#fff" fill-opacity="0"/><use xlink:href="#a" transform="matrix(1,0,0,1,457.14655278534315,74) translate(318.2988888888889 25.782777777777778)"/><use xlink:href="#b" transform="matrix(1,0,0,1,457.14655278534315,74) translate(376.35197530864195 25.782777777777778)"/><use xlink:href="#c" transform="matrix(1,0,0,1,457.14655278534315,74) translate(478.1087654320987 25.782777777777778)"/><path d="M712.2 109.8h357.37M712.22 109.8h-1.02M1069.54 109.8h1.03" stroke="#a9afb8" stroke-width="2" fill="none"/><path d="M453.15 119.16c0-4.42 3.58-8 8-8h837.7c4.42 0 8 3.58 8 8V122c0 4.42-3.58 8-8 8h-837.7c-4.42 0-8-3.58-8-8z" stroke="#000" stroke-opacity="0" stroke-width="2" fill="#fff" fill-opacity="0"/><path d="M570 692.5c0-4.42 3.58-8 8-8h184c4.42 0 8 3.58 8 8v258c0 4.42-3.58 8-8 8H578c-4.42 0-8-3.58-8-8z" fill="#fff"/><path d="M570 684.5h200v40H570z" fill="#ccc"/><path d="M570 692.5c0-4.42 3.58-8 8-8h184c4.42 0 8 3.58 8 8v258c0 4.42-3.58 8-8 8H578c-4.42 0-8-3.58-8-8zM570 724.5h200" stroke="#333" fill="none"/><use xlink:href="#d" transform="matrix(1,0,0,1,580.0000000000002,684.5) translate(60.80246913580247 19.555555555555557)"/><use xlink:href="#e" transform="matrix(1,0,0,1,575.0000000000002,727) translate(57.75617283950617 19.555555555555557)"/><use xlink:href="#f" transform="matrix(1,0,0,1,575.0000000000002,727) translate(83.49074074074073 19.555555555555557)"/><use xlink:href="#g" transform="matrix(1,0,0,1,575.0000000000002,766) translate(76.05555555555556 19.555555555555557)"/><use xlink:href="#h" transform="matrix(1,0,0,1,575.0000000000002,805) translate(36.02777777777776 19.555555555555557)"/><use xlink:href="#i" transform="matrix(1,0,0,1,575.0000000000002,844) translate(68.51851851851852 19.555555555555557)"/><use xlink:href="#j" transform="matrix(1,0,0,1,575.0000000000002,883) translate(13.688271604938251 19.555555555555557)"/><use xlink:href="#k" transform="matrix(1,0,0,1,575.0000000000002,883) translate(128.98456790123458 19.555555555555557)"/><use xlink:href="#l" transform="matrix(1,0,0,1,575.0000000000002,922) translate(21.12345679012344 19.555555555555557)"/><use xlink:href="#k" transform="matrix(1,0,0,1,575.0000000000002,922) translate(121.5493827160494 19.555555555555557)"/><path d="M990 692.5c0-4.42 3.58-8 8-8h184c4.42 0 8 3.58 8 8v180c0 4.42-3.58 8-8 8H998c-4.42 0-8-3.58-8-8z" fill="#fff"/><path d="M990 684.5h200v40H990z" fill="#ccc"/><path d="M990 692.5c0-4.42 3.58-8 8-8h184c4.42 0 8 3.58 8 8v180c0 4.42-3.58 8-8 8H998c-4.42 0-8-3.58-8-8zM990 724.5h200" stroke="#333" fill="none"/><use xlink:href="#m" transform="matrix(1,0,0,1,1000.0000000000007,684.5) translate(33.70987654320986 24.88888888888889)"/><use xlink:href="#e" transform="matrix(1,0,0,1,995.0000000000007,727) translate(57.75617283950617 21.88888888888889)"/><use xlink:href="#f" transform="matrix(1,0,0,1,995.0000000000007,727) translate(83.49074074074073 21.88888888888889)"/><use xlink:href="#n" transform="matrix(1,0,0,1,995.0000000000007,766) translate(75.30864197530863 21.88888888888889)"/><use xlink:href="#o" transform="matrix(1,0,0,1,995.0000000000007,805) translate(28.59259259259258 21.88888888888889)"/><use xlink:href="#k" transform="matrix(1,0,0,1,995.0000000000007,805) translate(114.08024691358025 21.88888888888889)"/><use xlink:href="#l" transform="matrix(1,0,0,1,995.0000000000007,844) translate(21.12345679012344 19.555555555555557)"/><use xlink:href="#k" transform="matrix(1,0,0,1,995.0000000000007,844) translate(121.5493827160494 19.555555555555557)"/><path d="M150 188c0-4.42 3.58-8 8-8h184c4.42 0 8 3.58 8 8v417c0 4.42-3.58 8-8 8H158c-4.42 0-8-3.58-8-8z" fill="#fff"/><path d="M150 180h200v40H150z" fill="#ccc"/><path d="M150 188c0-4.42 3.58-8 8-8h184c4.42 0 8 3.58 8 8v417c0 4.42-3.58 8-8 8H158c-4.42 0-8-3.58-8-8zM150 220h200" stroke="#333" fill="none"/><use xlink:href="#p" transform="matrix(1,0,0,1,160,180) translate(60.157407407407405 19.555555555555557)"/><use xlink:href="#q" transform="matrix(1,0,0,1,155,222.5) translate(12.975308641975289 19.555555555555557)"/><use xlink:href="#f" transform="matrix(1,0,0,1,155,222.5) translate(128.2716049382716 19.555555555555557)"/><use xlink:href="#r" transform="matrix(1,0,0,1,155,261.5) translate(42.783950617283935 19.555555555555557)"/><use xlink:href="#s" transform="matrix(1,0,0,1,155,300.5) translate(38.0648148148148 19.555555555555557)"/><use xlink:href="#t" transform="matrix(1,0,0,1,155,339.5) translate(38.709876543209866 19.555555555555557)"/><use xlink:href="#u" transform="matrix(1,0,0,1,155,378.5) translate(65.90432098765432 19.555555555555557)"/><use xlink:href="#v" transform="matrix(1,0,0,1,155,417.5) translate(44.14197530864196 19.555555555555557)"/><use xlink:href="#w" transform="matrix(1,0,0,1,155,456.5) translate(46.212962962962955 19.555555555555557)"/><use xlink:href="#x" transform="matrix(1,0,0,1,155,495.5) translate(76.53425925925926 19.73333333333333)"/><use xlink:href="#y" transform="matrix(1,0,0,1,155,535.5) translate(68.27777777777779 19.73333333333333)"/><use xlink:href="#z" transform="matrix(1,0,0,1,155,575.5) translate(54.60833333333334 19.73333333333333)"/><path d="M570 305c0-4.42 3.58-8 8-8h184c4.42 0 8 3.58 8 8v102c0 4.42-3.58 8-8 8H578c-4.42 0-8-3.58-8-8z" fill="#fff"/><path d="M570 297h200v40H570z" fill="#ccc"/><path d="M570 305c0-4.42 3.58-8 8-8h184c4.42 0 8 3.58 8 8v102c0 4.42-3.58 8-8 8H578c-4.42 0-8-3.58-8-8zM570 337h200" stroke="#333" fill="none"/><use xlink:href="#A" transform="matrix(1,0,0,1,580.0000000000002,297) translate(9.299382716049351 24.88888888888889)"/><use xlink:href="#B" transform="matrix(1,0,0,1,575.0000000000002,339.5) translate(0.7870370370370097 21.88888888888889)"/><use xlink:href="#f" transform="matrix(1,0,0,1,575.0000000000002,339.5) translate(140.4598765432099 21.88888888888889)"/><use xlink:href="#q" transform="matrix(1,0,0,1,575.0000000000002,378.5) translate(12.975308641975289 21.88888888888889)"/><use xlink:href="#f" transform="matrix(1,0,0,1,575.0000000000002,378.5) translate(128.2716049382716 21.88888888888889)"/><path d="M150 692.5c0-4.42 3.58-8 8-8h184c4.42 0 8 3.58 8 8v141c0 4.42-3.58 8-8 8H158c-4.42 0-8-3.58-8-8z" fill="#fff"/><path d="M150 684.5h200v40H150z" fill="#ccc"/><path d="M150 692.5c0-4.42 3.58-8 8-8h184c4.42 0 8 3.58 8 8v141c0 4.42-3.58 8-8 8H158c-4.42 0-8-3.58-8-8zM150 724.5h200" stroke="#333" fill="none"/><use xlink:href="#C" transform="matrix(1,0,0,1,160,684.5) translate(60.80246913580247 24.88888888888889)"/><use xlink:href="#D" transform="matrix(1,0,0,1,155,727) translate(27.87962962962962 21.88888888888889)"/><use xlink:href="#f" transform="matrix(1,0,0,1,155,727) translate(113.36728395061729 21.88888888888889)"/><use xlink:href="#q" transform="matrix(1,0,0,1,155,766) translate(12.975308641975289 21.88888888888889)"/><use xlink:href="#f" transform="matrix(1,0,0,1,155,766) translate(128.2716049382716 21.88888888888889)"/><use xlink:href="#E" transform="matrix(1,0,0,1,155,805) translate(48.929012345679 21.88888888888889)"/><path d="M370.5 356.5h179.6" stroke="#333" fill="none"/><path d="M370.5 366.5v-20M350.5 356.5h20M569.28 366.5l-20-10 20-10M569.28 356.5h-20" stroke="#333" fill="#fff"/><path d="M250 633.5v31.1" stroke="#333" fill="none"/><path d="M240 633.5h20M250 613.5v20M240 683.78l10-20 10 20M250 683.78v-20" stroke="#333" fill="#fff"/><path d="M549.5 744H369.9" stroke="#333" fill="none"/><path d="M549.5 734v20M569.5 744h-20M350.72 734l20 10-20 10M350.72 744h20" stroke="#333" fill="#fff"/><path d="M790.5 744h179.6" stroke="#333" fill="none"/><path d="M790.5 754v-20M770.5 744h20M989.28 754l-20-10 20-10M989.28 744h-20" stroke="#333" fill="#fff"/><path d="M1090 664V368.5c0-6.63-5.37-12-12-12H790.5" stroke="#333" fill="none"/><path d="M1100 664h-20M1090 684v-20M790.5 366.5v-20M770.5 356.5h20" stroke="#333" fill="#fff"/><path d="M1410 188c0-4.42 3.58-8 8-8h184c4.42 0 8 3.58 8 8v102c0 4.42-3.58 8-8 8h-184c-4.42 0-8-3.58-8-8z" fill="#fff"/><path d="M1410 180h200v40h-200z" fill="#ccc"/><path d="M1410 188c0-4.42 3.58-8 8-8h184c4.42 0 8 3.58 8 8v102c0 4.42-3.58 8-8 8h-184c-4.42 0-8-3.58-8-8zM1410 220h200" stroke="#333" fill="none"/><use xlink:href="#F" transform="matrix(1,0,0,1,1420.0000000000005,180) translate(28.92283950617282 24.88888888888889)"/><use xlink:href="#G" transform="matrix(1,0,0,1,1415.0000000000005,222.5) translate(20.41049382716048 21.88888888888889)"/><use xlink:href="#f" transform="matrix(1,0,0,1,1415.0000000000005,222.5) translate(120.83641975308643 21.88888888888889)"/><use xlink:href="#q" transform="matrix(1,0,0,1,1415.0000000000005,261.5) translate(12.975308641975289 21.88888888888889)"/><use xlink:href="#f" transform="matrix(1,0,0,1,1415.0000000000005,261.5) translate(128.2716049382716 21.88888888888889)"/><path d="M1410 692.5c0-4.42 3.58-8 8-8h184c4.42 0 8 3.58 8 8v102c0 4.42-3.58 8-8 8h-184c-4.42 0-8-3.58-8-8z" fill="#fff"/><path d="M1410 684.5h200v40h-200z" fill="#ccc"/><path d="M1410 692.5c0-4.42 3.58-8 8-8h184c4.42 0 8 3.58 8 8v102c0 4.42-3.58 8-8 8h-184c-4.42 0-8-3.58-8-8zM1410 724.5h200" stroke="#333" fill="none"/><use xlink:href="#H" transform="matrix(1,0,0,1,1420.0000000000005,684.5) translate(53.33333333333333 24.88888888888889)"/><use xlink:href="#e" transform="matrix(1,0,0,1,1415.0000000000005,727) translate(57.75617283950617 21.88888888888889)"/><use xlink:href="#f" transform="matrix(1,0,0,1,1415.0000000000005,727) translate(83.49074074074073 21.88888888888889)"/><use xlink:href="#I" transform="matrix(1,0,0,1,1415.0000000000005,766) translate(81.48765432098764 21.88888888888889)"/><path d="M670 664V485.5c0-6.63-5.37-12-12-12H369.9" stroke="#333" fill="none"/><path d="M680 664h-20M670 684v-20M350.72 463.5l20 10-20 10M350.72 473.5h20" stroke="#333" fill="#fff"/><path d="M790.5 939H1498c6.63 0 12-5.37 12-12V823" stroke="#333" fill="none"/><path d="M790.5 949v-20M770.5 939h20M1500 823h20M1510 803v20" stroke="#333" fill="#fff"/><path d="M1210.5 744h179" stroke="#333" fill="none"/><path d="M1210.5 754v-20M1190.5 744h20M1389.5 734v20M1409.5 744h-20" stroke="#333" fill="#fff"/><path d="M1510 664V318.5" stroke="#333" fill="none"/><path d="M1520 664h-20M1510 684v-20M1500 318.5h20M1510 298.5v20" stroke="#333" fill="#fff"/><path d="M370.5 239.5h1019.6" stroke="#333" fill="none"/><path d="M370.5 249.5v-20M350.5 239.5h20M1409.28 249.5l-20-10 20-10M1409.28 239.5h-20" stroke="#333" fill="#fff"/><defs><path fill="#a9afb8" d="M24-248c120-7 223 5 221 122C244-46 201 0 124 0H24v-248zM76-40c74 7 117-18 117-86 0-67-45-88-117-82v168" id="J"/><path fill="#a9afb8" d="M110-194c64 0 96 36 96 99 0 64-35 99-97 99-61 0-95-36-95-99 0-62 34-99 96-99zm-1 164c35 0 45-28 45-65 0-40-10-65-43-65-34 0-45 26-45 65 0 36 10 65 43 65" id="K"/><path fill="#a9afb8" d="M195-6C206 82 75 100 31 46c-4-6-6-13-8-21l49-6c3 16 16 24 34 25 40 0 42-37 40-79-11 22-30 35-61 35-53 0-70-43-70-97 0-56 18-96 73-97 30 0 46 14 59 34l2-30h47zm-90-29c32 0 41-27 41-63 0-35-9-62-40-62-32 0-39 29-40 63 0 36 9 62 39 62" id="L"/><g id="a"><use transform="matrix(0.0728395061728395,0,0,0.0728395061728395,0,0)" xlink:href="#J"/><use transform="matrix(0.0728395061728395,0,0,0.0728395061728395,18.86543209876543,0)" xlink:href="#K"/><use transform="matrix(0.0728395061728395,0,0,0.0728395061728395,34.81728395061728,0)" xlink:href="#L"/></g><path fill="#a9afb8" d="M76-208v77h127v40H76V0H24v-248h183v40H76" id="M"/><path fill="#a9afb8" d="M135-150c-39-12-60 13-60 57V0H25l-1-190h47c2 13-1 29 3 40 6-28 27-53 61-41v41" id="N"/><path fill="#a9afb8" d="M25-224v-37h50v37H25zM25 0v-190h50V0H25" id="O"/><path fill="#a9afb8" d="M185-48c-13 30-37 53-82 52C43 2 14-33 14-96s30-98 90-98c62 0 83 45 84 108H66c0 31 8 55 39 56 18 0 30-7 34-22zm-45-69c5-46-57-63-70-21-2 6-4 13-4 21h74" id="P"/><path fill="#a9afb8" d="M135-194c87-1 58 113 63 194h-50c-7-57 23-157-34-157-59 0-34 97-39 157H25l-1-190h47c2 12-1 28 3 38 12-26 28-41 61-42" id="Q"/><path fill="#a9afb8" d="M88-194c31-1 46 15 58 34l-1-101h50l1 261h-48c-2-10 0-23-3-31C134-8 116 4 84 4 32 4 16-41 15-95c0-56 19-97 73-99zm17 164c33 0 40-30 41-66 1-37-9-64-41-64s-38 30-39 65c0 43 13 65 39 65" id="R"/><path fill="#a9afb8" d="M137-138c1-29-70-34-71-4 15 46 118 7 119 86 1 83-164 76-172 9l43-7c4 19 20 25 44 25 33 8 57-30 24-41C81-84 22-81 20-136c-2-80 154-74 161-7" id="S"/><g id="b"><use transform="matrix(0.0728395061728395,0,0,0.0728395061728395,0,0)" xlink:href="#M"/><use transform="matrix(0.0728395061728395,0,0,0.0728395061728395,15.95185185185185,0)" xlink:href="#N"/><use transform="matrix(0.0728395061728395,0,0,0.0728395061728395,26.14938271604938,0)" xlink:href="#O"/><use transform="matrix(0.0728395061728395,0,0,0.0728395061728395,33.43333333333333,0)" xlink:href="#P"/><use transform="matrix(0.0728395061728395,0,0,0.0728395061728395,48.00123456790123,0)" xlink:href="#Q"/><use transform="matrix(0.0728395061728395,0,0,0.0728395061728395,63.95308641975308,0)" xlink:href="#R"/><use transform="matrix(0.0728395061728395,0,0,0.0728395061728395,79.90493827160493,0)" xlink:href="#S"/></g><path fill="#a9afb8" d="M24 0v-248h195v40H76v63h132v40H76v65h150V0H24" id="T"/><path fill="#a9afb8" d="M240-174c0 40-23 61-54 70L253 0h-59l-57-94H76V0H24v-248c93 4 217-23 216 74zM76-134c48-2 112 12 112-38 0-48-66-32-112-35v73" id="U"/><g id="c"><use transform="matrix(0.0728395061728395,0,0,0.0728395061728395,0,0)" xlink:href="#T"/><use transform="matrix(0.0728395061728395,0,0,0.0728395061728395,17.48148148148148,0)" xlink:href="#U"/><use transform="matrix(0.0728395061728395,0,0,0.0728395061728395,36.34691358024691,0)" xlink:href="#J"/></g><path fill="#333" d="M115-194c55 1 70 41 70 98S169 2 115 4C84 4 66-9 55-30l1 105H24l-1-265h31l2 30c10-21 28-34 59-34zm-8 174c40 0 45-34 45-75s-6-73-45-74c-42 0-51 32-51 76 0 43 10 73 51 73" id="V"/><path fill="#333" d="M100-194c62-1 85 37 85 99 1 63-27 99-86 99S16-35 15-95c0-66 28-99 85-99zM99-20c44 1 53-31 53-75 0-43-8-75-51-75s-53 32-53 75 10 74 51 75" id="W"/><path fill="#333" d="M135-143c-3-34-86-38-87 0 15 53 115 12 119 90S17 21 10-45l28-5c4 36 97 45 98 0-10-56-113-15-118-90-4-57 82-63 122-42 12 7 21 19 24 35" id="X"/><path fill="#333" d="M59-47c-2 24 18 29 38 22v24C64 9 27 4 27-40v-127H5v-23h24l9-43h21v43h35v23H59v120" id="Y"/><g id="d"><use transform="matrix(0.06790123456790124,0,0,0.06790123456790124,0,0)" xlink:href="#V"/><use transform="matrix(0.06790123456790124,0,0,0.06790123456790124,13.580246913580249,0)" xlink:href="#W"/><use transform="matrix(0.06790123456790124,0,0,0.06790123456790124,27.160493827160497,0)" xlink:href="#X"/><use transform="matrix(0.06790123456790124,0,0,0.06790123456790124,39.38271604938272,0)" xlink:href="#Y"/><use transform="matrix(0.06790123456790124,0,0,0.06790123456790124,46.17283950617285,0)" xlink:href="#X"/></g><path fill="#333" d="M24-231v-30h32v30H24zM24 0v-190h32V0H24" id="Z"/><path fill="#333" d="M85-194c31 0 48 13 60 33l-1-100h32l1 261h-30c-2-10 0-23-3-31C134-8 116 4 85 4 32 4 16-35 15-94c0-66 23-100 70-100zm9 24c-40 0-46 34-46 75 0 40 6 74 45 74 42 0 51-32 51-76 0-42-9-74-50-73" id="aa"/><g id="e"><use transform="matrix(0.06790123456790124,0,0,0.06790123456790124,0,0)" xlink:href="#Z"/><use transform="matrix(0.06790123456790124,0,0,0.06790123456790124,5.364197530864199,0)" xlink:href="#aa"/></g><path fill="#333" d="M87 75C49 33 22-17 22-94c0-76 28-126 65-167h31c-38 41-64 92-64 168S80 34 118 75H87" id="ab"/><path fill="#333" d="M30-248c87 1 191-15 191 75 0 78-77 80-158 76V0H30v-248zm33 125c57 0 124 11 124-50 0-59-68-47-124-48v98" id="ac"/><path fill="#333" d="M194 0L95-120 63-95V0H30v-248h33v124l119-124h40L117-140 236 0h-42" id="ad"/><path fill="#333" d="M33-261c38 41 65 92 65 168S71 34 33 75H2C39 34 66-17 66-93S39-220 2-261h31" id="ae"/><g id="f"><use transform="matrix(0.06790123456790124,0,0,0.06790123456790124,0,0)" xlink:href="#ab"/><use transform="matrix(0.06790123456790124,0,0,0.06790123456790124,8.080246913580249,0)" xlink:href="#ac"/><use transform="matrix(0.06790123456790124,0,0,0.06790123456790124,24.376543209876544,0)" xlink:href="#ad"/><use transform="matrix(0.06790123456790124,0,0,0.06790123456790124,40.67283950617284,0)" xlink:href="#ae"/></g><path fill="#333" d="M24 0v-261h32V0H24" id="af"/><path fill="#333" d="M100-194c63 0 86 42 84 106H49c0 40 14 67 53 68 26 1 43-12 49-29l28 8c-11 28-37 45-77 45C44 4 14-33 15-96c1-61 26-98 85-98zm52 81c6-60-76-77-97-28-3 7-6 17-6 28h103" id="ag"/><g id="g"><use transform="matrix(0.06790123456790124,0,0,0.06790123456790124,0,0)" xlink:href="#Y"/><use transform="matrix(0.06790123456790124,0,0,0.06790123456790124,6.790123456790124,0)" xlink:href="#Z"/><use transform="matrix(0.06790123456790124,0,0,0.06790123456790124,12.154320987654323,0)" xlink:href="#Y"/><use transform="matrix(0.06790123456790124,0,0,0.06790123456790124,18.944444444444446,0)" xlink:href="#af"/><use transform="matrix(0.06790123456790124,0,0,0.06790123456790124,24.308641975308646,0)" xlink:href="#ag"/></g><path fill="#333" d="M96-169c-40 0-48 33-48 73s9 75 48 75c24 0 41-14 43-38l32 2c-6 37-31 61-74 61-59 0-76-41-82-99-10-93 101-131 147-64 4 7 5 14 7 22l-32 3c-4-21-16-35-41-35" id="ah"/><path fill="#333" d="M114-163C36-179 61-72 57 0H25l-1-190h30c1 12-1 29 2 39 6-27 23-49 58-41v29" id="ai"/><path fill="#333" d="M117-194c89-4 53 116 60 194h-32v-121c0-31-8-49-39-48C34-167 62-67 57 0H25l-1-190h30c1 10-1 24 2 32 11-22 29-35 61-36" id="aj"/><g id="h"><use transform="matrix(0.06790123456790124,0,0,0.06790123456790124,0,0)" xlink:href="#aa"/><use transform="matrix(0.06790123456790124,0,0,0.06790123456790124,13.580246913580249,0)" xlink:href="#ag"/><use transform="matrix(0.06790123456790124,0,0,0.06790123456790124,27.160493827160497,0)" xlink:href="#X"/><use transform="matrix(0.06790123456790124,0,0,0.06790123456790124,39.38271604938272,0)" xlink:href="#ah"/><use transform="matrix(0.06790123456790124,0,0,0.06790123456790124,51.604938271604944,0)" xlink:href="#ai"/><use transform="matrix(0.06790123456790124,0,0,0.06790123456790124,59.6851851851852,0)" xlink:href="#Z"/><use transform="matrix(0.06790123456790124,0,0,0.06790123456790124,65.0493827160494,0)" xlink:href="#V"/><use transform="matrix(0.06790123456790124,0,0,0.06790123456790124,78.62962962962965,0)" xlink:href="#Y"/><use transform="matrix(0.06790123456790124,0,0,0.06790123456790124,85.41975308641977,0)" xlink:href="#Z"/><use transform="matrix(0.06790123456790124,0,0,0.06790123456790124,90.78395061728398,0)" xlink:href="#W"/><use transform="matrix(0.06790123456790124,0,0,0.06790123456790124,104.36419753086423,0)" xlink:href="#aj"/></g><path d="M115-194c53 0 69 39 70 98 0 66-23 100-70 100C84 3 66-7 56-30L54 0H23l1-261h32v101c10-23 28-34 59-34zm-8 174c40 0 45-34 45-75 0-40-5-75-45-74-42 0-51 32-51 76 0 43 10 73 51 73" id="ak"/><path d="M100-194c62-1 85 37 85 99 1 63-27 99-86 99S16-35 15-95c0-66 28-99 85-99zM99-20c44 1 53-31 53-75 0-43-8-75-51-75s-53 32-53 75 10 74 51 75" id="al"/><path d="M85-194c31 0 48 13 60 33l-1-100h32l1 261h-30c-2-10 0-23-3-31C134-8 116 4 85 4 32 4 16-35 15-94c0-66 23-100 70-100zm9 24c-40 0-46 34-46 75 0 40 6 74 45 74 42 0 51-32 51-76 0-42-9-74-50-73" id="am"/><path d="M179-190L93 31C79 59 56 82 12 73V49c39 6 53-20 64-50L1-190h34L92-34l54-156h33" id="an"/><g id="i"><use transform="matrix(0.06790123456790124,0,0,0.06790123456790124,0,0)" xlink:href="#ak"/><use transform="matrix(0.06790123456790124,0,0,0.06790123456790124,13.580246913580249,0)" xlink:href="#al"/><use transform="matrix(0.06790123456790124,0,0,0.06790123456790124,27.160493827160497,0)" xlink:href="#am"/><use transform="matrix(0.06790123456790124,0,0,0.06790123456790124,40.74074074074075,0)" xlink:href="#an"/></g><path d="M84 4C-5 8 30-112 23-190h32v120c0 31 7 50 39 49 72-2 45-101 50-169h31l1 190h-30c-1-10 1-25-2-33-11 22-28 36-60 37" id="ao"/><path d="M135-143c-3-34-86-38-87 0 15 53 115 12 119 90S17 21 10-45l28-5c4 36 97 45 98 0-10-56-113-15-118-90-4-57 82-63 122-42 12 7 21 19 24 35" id="ap"/><path d="M100-194c63 0 86 42 84 106H49c0 40 14 67 53 68 26 1 43-12 49-29l28 8c-11 28-37 45-77 45C44 4 14-33 15-96c1-61 26-98 85-98zm52 81c6-60-76-77-97-28-3 7-6 17-6 28h103" id="aq"/><path d="M114-163C36-179 61-72 57 0H25l-1-190h30c1 12-1 29 2 39 6-27 23-49 58-41v29" id="ar"/><path d="M117-194c89-4 53 116 60 194h-32v-121c0-31-8-49-39-48C34-167 62-67 57 0H25l-1-190h30c1 10-1 24 2 32 11-22 29-35 61-36" id="as"/><path d="M141-36C126-15 110 5 73 4 37 3 15-17 15-53c-1-64 63-63 125-63 3-35-9-54-41-54-24 1-41 7-42 31l-33-3c5-37 33-52 76-52 45 0 72 20 72 64v82c-1 20 7 32 28 27v20c-31 9-61-2-59-35zM48-53c0 20 12 33 32 33 41-3 63-29 60-74-43 2-92-5-92 41" id="at"/><path d="M210-169c-67 3-38 105-44 169h-31v-121c0-29-5-50-35-48C34-165 62-65 56 0H25l-1-190h30c1 10-1 24 2 32 10-44 99-50 107 0 11-21 27-35 58-36 85-2 47 119 55 194h-31v-121c0-29-5-49-35-48" id="au"/><g id="j"><use transform="matrix(0.06790123456790124,0,0,0.06790123456790124,0,0)" xlink:href="#ao"/><use transform="matrix(0.06790123456790124,0,0,0.06790123456790124,13.580246913580249,0)" xlink:href="#ap"/><use transform="matrix(0.06790123456790124,0,0,0.06790123456790124,25.802469135802472,0)" xlink:href="#aq"/><use transform="matrix(0.06790123456790124,0,0,0.06790123456790124,39.38271604938272,0)" xlink:href="#ar"/><use transform="matrix(0.06790123456790124,0,0,0.06790123456790124,47.46296296296297,0)" xlink:href="#as"/><use transform="matrix(0.06790123456790124,0,0,0.06790123456790124,61.043209876543216,0)" xlink:href="#at"/><use transform="matrix(0.06790123456790124,0,0,0.06790123456790124,74.62345679012347,0)" xlink:href="#au"/><use transform="matrix(0.06790123456790124,0,0,0.06790123456790124,94.92592592592594,0)" xlink:href="#aq"/></g><path d="M87 75C49 33 22-17 22-94c0-76 28-126 65-167h31c-38 41-64 92-64 168S80 34 118 75H87" id="av"/><path d="M63-220v92h138v28H63V0H30v-248h175v28H63" id="aw"/><path d="M194 0L95-120 63-95V0H30v-248h33v124l119-124h40L117-140 236 0h-42" id="ax"/><path d="M33-261c38 41 65 92 65 168S71 34 33 75H2C39 34 66-17 66-93S39-220 2-261h31" id="ay"/><g id="k"><use transform="matrix(0.06790123456790124,0,0,0.06790123456790124,0,0)" xlink:href="#av"/><use transform="matrix(0.06790123456790124,0,0,0.06790123456790124,8.080246913580249,0)" xlink:href="#aw"/><use transform="matrix(0.06790123456790124,0,0,0.06790123456790124,22.95061728395062,0)" xlink:href="#ax"/><use transform="matrix(0.06790123456790124,0,0,0.06790123456790124,39.24691358024692,0)" xlink:href="#ay"/></g><path d="M115-194c55 1 70 41 70 98S169 2 115 4C84 4 66-9 55-30l1 105H24l-1-265h31l2 30c10-21 28-34 59-34zm-8 174c40 0 45-34 45-75s-6-73-45-74c-42 0-51 32-51 76 0 43 10 73 51 73" id="az"/><path d="M106-169C34-169 62-67 57 0H25v-261h32l-1 103c12-21 28-36 61-36 89 0 53 116 60 194h-32v-121c2-32-8-49-39-48" id="aA"/><path d="M59-47c-2 24 18 29 38 22v24C64 9 27 4 27-40v-127H5v-23h24l9-43h21v43h35v23H59v120" id="aB"/><path d="M-5 72V49h209v23H-5" id="aC"/><path d="M24-231v-30h32v30H24zM24 0v-190h32V0H24" id="aD"/><g id="l"><use transform="matrix(0.06790123456790124,0,0,0.06790123456790124,0,0)" xlink:href="#az"/><use transform="matrix(0.06790123456790124,0,0,0.06790123456790124,13.580246913580249,0)" xlink:href="#aA"/><use transform="matrix(0.06790123456790124,0,0,0.06790123456790124,27.160493827160497,0)" xlink:href="#al"/><use transform="matrix(0.06790123456790124,0,0,0.06790123456790124,40.74074074074075,0)" xlink:href="#aB"/><use transform="matrix(0.06790123456790124,0,0,0.06790123456790124,47.530864197530875,0)" xlink:href="#al"/><use transform="matrix(0.06790123456790124,0,0,0.06790123456790124,61.11111111111112,0)" xlink:href="#aC"/><use transform="matrix(0.06790123456790124,0,0,0.06790123456790124,74.69135802469137,0)" xlink:href="#aD"/><use transform="matrix(0.06790123456790124,0,0,0.06790123456790124,80.05555555555557,0)" xlink:href="#am"/></g><path fill="#333" d="M210-169c-67 3-38 105-44 169h-31v-121c0-29-5-50-35-48C34-165 62-65 56 0H25l-1-190h30c1 10-1 24 2 32 10-44 99-50 107 0 11-21 27-35 58-36 85-2 47 119 55 194h-31v-121c0-29-5-49-35-48" id="aE"/><g id="m"><use transform="matrix(0.06790123456790124,0,0,0.06790123456790124,0,0)" xlink:href="#ah"/><use transform="matrix(0.06790123456790124,0,0,0.06790123456790124,12.222222222222223,0)" xlink:href="#W"/><use transform="matrix(0.06790123456790124,0,0,0.06790123456790124,25.802469135802472,0)" xlink:href="#aE"/><use transform="matrix(0.06790123456790124,0,0,0.06790123456790124,46.104938271604944,0)" xlink:href="#aE"/><use transform="matrix(0.06790123456790124,0,0,0.06790123456790124,66.40740740740742,0)" xlink:href="#ag"/><use transform="matrix(0.06790123456790124,0,0,0.06790123456790124,79.98765432098767,0)" xlink:href="#aj"/><use transform="matrix(0.06790123456790124,0,0,0.06790123456790124,93.56790123456793,0)" xlink:href="#Y"/><use transform="matrix(0.06790123456790124,0,0,0.06790123456790124,100.35802469135805,0)" xlink:href="#X"/></g><path fill="#333" d="M141 0L90-78 38 0H4l68-98-65-92h35l48 74 47-74h35l-64 92 68 98h-35" id="aF"/><g id="n"><use transform="matrix(0.06790123456790124,0,0,0.06790123456790124,0,0)" xlink:href="#Y"/><use transform="matrix(0.06790123456790124,0,0,0.06790123456790124,6.790123456790124,0)" xlink:href="#ag"/><use transform="matrix(0.06790123456790124,0,0,0.06790123456790124,20.370370370370374,0)" xlink:href="#aF"/><use transform="matrix(0.06790123456790124,0,0,0.06790123456790124,32.592592592592595,0)" xlink:href="#Y"/></g><path fill="#333" d="M-5 72V49h209v23H-5" id="aG"/><g id="o"><use transform="matrix(0.06790123456790124,0,0,0.06790123456790124,0,0)" xlink:href="#V"/><use transform="matrix(0.06790123456790124,0,0,0.06790123456790124,13.580246913580249,0)" xlink:href="#W"/><use transform="matrix(0.06790123456790124,0,0,0.06790123456790124,27.160493827160497,0)" xlink:href="#X"/><use transform="matrix(0.06790123456790124,0,0,0.06790123456790124,39.38271604938272,0)" xlink:href="#Y"/><use transform="matrix(0.06790123456790124,0,0,0.06790123456790124,46.17283950617285,0)" xlink:href="#aG"/><use transform="matrix(0.06790123456790124,0,0,0.06790123456790124,59.753086419753096,0)" xlink:href="#Z"/><use transform="matrix(0.06790123456790124,0,0,0.06790123456790124,65.11728395061729,0)" xlink:href="#aa"/></g><path fill="#333" d="M84 4C-5 8 30-112 23-190h32v120c0 31 7 50 39 49 72-2 45-101 50-169h31l1 190h-30c-1-10 1-25-2-33-11 22-28 36-60 37" id="aH"/><g id="p"><use transform="matrix(0.06790123456790124,0,0,0.06790123456790124,0,0)" xlink:href="#aH"/><use transform="matrix(0.06790123456790124,0,0,0.06790123456790124,13.580246913580249,0)" xlink:href="#X"/><use transform="matrix(0.06790123456790124,0,0,0.06790123456790124,25.802469135802472,0)" xlink:href="#ag"/><use transform="matrix(0.06790123456790124,0,0,0.06790123456790124,39.38271604938272,0)" xlink:href="#ai"/><use transform="matrix(0.06790123456790124,0,0,0.06790123456790124,47.46296296296297,0)" xlink:href="#X"/></g><path fill="#333" d="M141-36C126-15 110 5 73 4 37 3 15-17 15-53c-1-64 63-63 125-63 3-35-9-54-41-54-24 1-41 7-42 31l-33-3c5-37 33-52 76-52 45 0 72 20 72 64v82c-1 20 7 32 28 27v20c-31 9-61-2-59-35zM48-53c0 20 12 33 32 33 41-3 63-29 60-74-43 2-92-5-92 41" id="aI"/><g id="q"><use transform="matrix(0.06790123456790124,0,0,0.06790123456790124,0,0)" xlink:href="#aH"/><use transform="matrix(0.06790123456790124,0,0,0.06790123456790124,13.580246913580249,0)" xlink:href="#X"/><use transform="matrix(0.06790123456790124,0,0,0.06790123456790124,25.802469135802472,0)" xlink:href="#ag"/><use transform="matrix(0.06790123456790124,0,0,0.06790123456790124,39.38271604938272,0)" xlink:href="#ai"/><use transform="matrix(0.06790123456790124,0,0,0.06790123456790124,47.46296296296297,0)" xlink:href="#aj"/><use transform="matrix(0.06790123456790124,0,0,0.06790123456790124,61.043209876543216,0)" xlink:href="#aI"/><use transform="matrix(0.06790123456790124,0,0,0.06790123456790124,74.62345679012347,0)" xlink:href="#aE"/><use transform="matrix(0.06790123456790124,0,0,0.06790123456790124,94.92592592592594,0)" xlink:href="#ag"/></g><path fill="#333" d="M206 0h-36l-40-164L89 0H53L-1-190h32L70-26l43-164h34l41 164 42-164h31" id="aJ"/><g id="r"><use transform="matrix(0.06790123456790124,0,0,0.06790123456790124,0,0)" xlink:href="#V"/><use transform="matrix(0.06790123456790124,0,0,0.06790123456790124,13.580246913580249,0)" xlink:href="#aI"/><use transform="matrix(0.06790123456790124,0,0,0.06790123456790124,27.160493827160497,0)" xlink:href="#X"/><use transform="matrix(0.06790123456790124,0,0,0.06790123456790124,39.38271604938272,0)" xlink:href="#X"/><use transform="matrix(0.06790123456790124,0,0,0.06790123456790124,51.604938271604944,0)" xlink:href="#aJ"/><use transform="matrix(0.06790123456790124,0,0,0.06790123456790124,69.19135802469137,0)" xlink:href="#W"/><use transform="matrix(0.06790123456790124,0,0,0.06790123456790124,82.77160493827162,0)" xlink:href="#ai"/><use transform="matrix(0.06790123456790124,0,0,0.06790123456790124,90.85185185185188,0)" xlink:href="#aa"/></g><path fill="#333" d="M101-234c-31-9-42 10-38 44h38v23H63V0H32v-167H5v-23h27c-7-52 17-82 69-68v24" id="aK"/><g id="s"><use transform="matrix(0.06790123456790124,0,0,0.06790123456790124,0,0)" xlink:href="#aK"/><use transform="matrix(0.06790123456790124,0,0,0.06790123456790124,6.790123456790124,0)" xlink:href="#Z"/><use transform="matrix(0.06790123456790124,0,0,0.06790123456790124,12.154320987654323,0)" xlink:href="#ai"/><use transform="matrix(0.06790123456790124,0,0,0.06790123456790124,20.23456790123457,0)" xlink:href="#X"/><use transform="matrix(0.06790123456790124,0,0,0.06790123456790124,32.45679012345679,0)" xlink:href="#Y"/><use transform="matrix(0.06790123456790124,0,0,0.06790123456790124,39.24691358024692,0)" xlink:href="#aG"/><use transform="matrix(0.06790123456790124,0,0,0.06790123456790124,52.827160493827165,0)" xlink:href="#aj"/><use transform="matrix(0.06790123456790124,0,0,0.06790123456790124,66.40740740740742,0)" xlink:href="#aI"/><use transform="matrix(0.06790123456790124,0,0,0.06790123456790124,79.98765432098767,0)" xlink:href="#aE"/><use transform="matrix(0.06790123456790124,0,0,0.06790123456790124,100.29012345679014,0)" xlink:href="#ag"/></g><path d="M24 0v-261h32V0H24" id="aL"/><g id="t"><use transform="matrix(0.06790123456790124,0,0,0.06790123456790124,0,0)" xlink:href="#aL"/><use transform="matrix(0.06790123456790124,0,0,0.06790123456790124,5.364197530864199,0)" xlink:href="#at"/><use transform="matrix(0.06790123456790124,0,0,0.06790123456790124,18.944444444444446,0)" xlink:href="#ap"/><use transform="matrix(0.06790123456790124,0,0,0.06790123456790124,31.16666666666667,0)" xlink:href="#aB"/><use transform="matrix(0.06790123456790124,0,0,0.06790123456790124,37.9567901234568,0)" xlink:href="#aC"/><use transform="matrix(0.06790123456790124,0,0,0.06790123456790124,51.537037037037045,0)" xlink:href="#as"/><use transform="matrix(0.06790123456790124,0,0,0.06790123456790124,65.11728395061729,0)" xlink:href="#at"/><use transform="matrix(0.06790123456790124,0,0,0.06790123456790124,78.69753086419755,0)" xlink:href="#au"/><use transform="matrix(0.06790123456790124,0,0,0.06790123456790124,99.00000000000001,0)" xlink:href="#aq"/></g><g id="u"><use transform="matrix(0.06790123456790124,0,0,0.06790123456790124,0,0)" xlink:href="#aq"/><use transform="matrix(0.06790123456790124,0,0,0.06790123456790124,13.580246913580249,0)" xlink:href="#au"/><use transform="matrix(0.06790123456790124,0,0,0.06790123456790124,33.88271604938272,0)" xlink:href="#at"/><use transform="matrix(0.06790123456790124,0,0,0.06790123456790124,47.46296296296297,0)" xlink:href="#aD"/><use transform="matrix(0.06790123456790124,0,0,0.06790123456790124,52.827160493827165,0)" xlink:href="#aL"/></g><g id="v"><use transform="matrix(0.06790123456790124,0,0,0.06790123456790124,0,0)" xlink:href="#az"/><use transform="matrix(0.06790123456790124,0,0,0.06790123456790124,13.580246913580249,0)" xlink:href="#aA"/><use transform="matrix(0.06790123456790124,0,0,0.06790123456790124,27.160493827160497,0)" xlink:href="#al"/><use transform="matrix(0.06790123456790124,0,0,0.06790123456790124,40.74074074074075,0)" xlink:href="#aB"/><use transform="matrix(0.06790123456790124,0,0,0.06790123456790124,47.530864197530875,0)" xlink:href="#al"/><use transform="matrix(0.06790123456790124,0,0,0.06790123456790124,61.11111111111112,0)" xlink:href="#aC"/><use transform="matrix(0.06790123456790124,0,0,0.06790123456790124,74.69135802469137,0)" xlink:href="#ao"/><use transform="matrix(0.06790123456790124,0,0,0.06790123456790124,88.27160493827162,0)" xlink:href="#ar"/><use transform="matrix(0.06790123456790124,0,0,0.06790123456790124,96.35185185185188,0)" xlink:href="#aL"/></g><g id="w"><use transform="matrix(0.06790123456790124,0,0,0.06790123456790124,0,0)" xlink:href="#aD"/><use transform="matrix(0.06790123456790124,0,0,0.06790123456790124,5.364197530864199,0)" xlink:href="#ap"/><use transform="matrix(0.06790123456790124,0,0,0.06790123456790124,17.58641975308642,0)" xlink:href="#aC"/><use transform="matrix(0.06790123456790124,0,0,0.06790123456790124,31.16666666666667,0)" xlink:href="#at"/><use transform="matrix(0.06790123456790124,0,0,0.06790123456790124,44.74691358024692,0)" xlink:href="#am"/><use transform="matrix(0.06790123456790124,0,0,0.06790123456790124,58.32716049382716,0)" xlink:href="#au"/><use transform="matrix(0.06790123456790124,0,0,0.06790123456790124,78.62962962962962,0)" xlink:href="#aD"/><use transform="matrix(0.06790123456790124,0,0,0.06790123456790124,83.99382716049384,0)" xlink:href="#as"/></g><path d="M96-169c-40 0-48 33-48 73s9 75 48 75c24 0 41-14 43-38l32 2c-6 37-31 61-74 61-59 0-76-41-82-99-10-93 101-131 147-64 4 7 5 14 7 22l-32 3c-4-21-16-35-41-35" id="aM"/><g id="x"><use transform="matrix(0.0685185185185185,0,0,0.0685185185185185,0,0)" xlink:href="#aM"/><use transform="matrix(0.0685185185185185,0,0,0.0685185185185185,12.33333333333333,0)" xlink:href="#aD"/><use transform="matrix(0.0685185185185185,0,0,0.0685185185185185,17.746296296296293,0)" xlink:href="#aB"/><use transform="matrix(0.0685185185185185,0,0,0.0685185185185185,24.598148148148145,0)" xlink:href="#an"/></g><g id="y"><use transform="matrix(0.0685185185185185,0,0,0.0685185185185185,0,0)" xlink:href="#ap"/><use transform="matrix(0.0685185185185185,0,0,0.0685185185185185,12.33333333333333,0)" xlink:href="#aB"/><use transform="matrix(0.0685185185185185,0,0,0.0685185185185185,19.185185185185176,0)" xlink:href="#at"/><use transform="matrix(0.0685185185185185,0,0,0.0685185185185185,32.88888888888888,0)" xlink:href="#aB"/><use transform="matrix(0.0685185185185185,0,0,0.0685185185185185,39.740740740740726,0)" xlink:href="#aq"/></g><g id="z"><use transform="matrix(0.0685185185185185,0,0,0.0685185185185185,0,0)" xlink:href="#aM"/><use transform="matrix(0.0685185185185185,0,0,0.0685185185185185,12.33333333333333,0)" xlink:href="#al"/><use transform="matrix(0.0685185185185185,0,0,0.0685185185185185,26.03703703703703,0)" xlink:href="#ao"/><use transform="matrix(0.0685185185185185,0,0,0.0685185185185185,39.74074074074073,0)" xlink:href="#as"/><use transform="matrix(0.0685185185185185,0,0,0.0685185185185185,53.444444444444436,0)" xlink:href="#aB"/><use transform="matrix(0.0685185185185185,0,0,0.0685185185185185,60.29629629629628,0)" xlink:href="#ar"/><use transform="matrix(0.0685185185185185,0,0,0.0685185185185185,68.44999999999999,0)" xlink:href="#an"/></g><g id="A"><use transform="matrix(0.06790123456790124,0,0,0.06790123456790124,0,0)" xlink:href="#ah"/><use transform="matrix(0.06790123456790124,0,0,0.06790123456790124,12.222222222222223,0)" xlink:href="#W"/><use transform="matrix(0.06790123456790124,0,0,0.06790123456790124,25.802469135802472,0)" xlink:href="#aE"/><use transform="matrix(0.06790123456790124,0,0,0.06790123456790124,46.104938271604944,0)" xlink:href="#aE"/><use transform="matrix(0.06790123456790124,0,0,0.06790123456790124,66.40740740740742,0)" xlink:href="#ag"/><use transform="matrix(0.06790123456790124,0,0,0.06790123456790124,79.98765432098767,0)" xlink:href="#aj"/><use transform="matrix(0.06790123456790124,0,0,0.06790123456790124,93.56790123456793,0)" xlink:href="#Y"/><use transform="matrix(0.06790123456790124,0,0,0.06790123456790124,100.35802469135805,0)" xlink:href="#aG"/><use transform="matrix(0.06790123456790124,0,0,0.06790123456790124,113.93827160493831,0)" xlink:href="#aH"/><use transform="matrix(0.06790123456790124,0,0,0.06790123456790124,127.51851851851856,0)" xlink:href="#X"/><use transform="matrix(0.06790123456790124,0,0,0.06790123456790124,139.7407407407408,0)" xlink:href="#ag"/><use transform="matrix(0.06790123456790124,0,0,0.06790123456790124,153.32098765432104,0)" xlink:href="#ai"/></g><g id="B"><use transform="matrix(0.06790123456790124,0,0,0.06790123456790124,0,0)" xlink:href="#ah"/><use transform="matrix(0.06790123456790124,0,0,0.06790123456790124,12.222222222222223,0)" xlink:href="#W"/><use transform="matrix(0.06790123456790124,0,0,0.06790123456790124,25.802469135802472,0)" xlink:href="#aE"/><use transform="matrix(0.06790123456790124,0,0,0.06790123456790124,46.104938271604944,0)" xlink:href="#aE"/><use transform="matrix(0.06790123456790124,0,0,0.06790123456790124,66.40740740740742,0)" xlink:href="#ag"/><use transform="matrix(0.06790123456790124,0,0,0.06790123456790124,79.98765432098767,0)" xlink:href="#aj"/><use transform="matrix(0.06790123456790124,0,0,0.06790123456790124,93.56790123456793,0)" xlink:href="#Y"/><use transform="matrix(0.06790123456790124,0,0,0.06790123456790124,100.35802469135805,0)" xlink:href="#aG"/><use transform="matrix(0.06790123456790124,0,0,0.06790123456790124,113.93827160493831,0)" xlink:href="#Z"/><use transform="matrix(0.06790123456790124,0,0,0.06790123456790124,119.30246913580251,0)" xlink:href="#aa"/></g><path fill="#333" d="M108 0H70L1-190h34L89-25l56-165h34" id="aN"/><g id="C"><use transform="matrix(0.06790123456790124,0,0,0.06790123456790124,0,0)" xlink:href="#aN"/><use transform="matrix(0.06790123456790124,0,0,0.06790123456790124,12.222222222222223,0)" xlink:href="#W"/><use transform="matrix(0.06790123456790124,0,0,0.06790123456790124,25.802469135802472,0)" xlink:href="#Y"/><use transform="matrix(0.06790123456790124,0,0,0.06790123456790124,32.592592592592595,0)" xlink:href="#ag"/><use transform="matrix(0.06790123456790124,0,0,0.06790123456790124,46.17283950617284,0)" xlink:href="#X"/></g><g id="D"><use transform="matrix(0.06790123456790124,0,0,0.06790123456790124,0,0)" xlink:href="#V"/><use transform="matrix(0.06790123456790124,0,0,0.06790123456790124,13.580246913580249,0)" xlink:href="#W"/><use transform="matrix(0.06790123456790124,0,0,0.06790123456790124,27.160493827160497,0)" xlink:href="#X"/><use transform="matrix(0.06790123456790124,0,0,0.06790123456790124,39.38271604938272,0)" xlink:href="#Y"/><use transform="matrix(0.06790123456790124,0,0,0.06790123456790124,46.17283950617285,0)" xlink:href="#aG"/><use transform="matrix(0.06790123456790124,0,0,0.06790123456790124,59.753086419753096,0)" xlink:href="#Z"/><use transform="matrix(0.06790123456790124,0,0,0.06790123456790124,65.11728395061729,0)" xlink:href="#aa"/></g><g id="E"><use transform="matrix(0.06790123456790124,0,0,0.06790123456790124,0,0)" xlink:href="#aa"/><use transform="matrix(0.06790123456790124,0,0,0.06790123456790124,13.580246913580249,0)" xlink:href="#Z"/><use transform="matrix(0.06790123456790124,0,0,0.06790123456790124,18.944444444444446,0)" xlink:href="#ai"/><use transform="matrix(0.06790123456790124,0,0,0.06790123456790124,27.024691358024697,0)" xlink:href="#ag"/><use transform="matrix(0.06790123456790124,0,0,0.06790123456790124,40.604938271604944,0)" xlink:href="#ah"/><use transform="matrix(0.06790123456790124,0,0,0.06790123456790124,52.827160493827165,0)" xlink:href="#Y"/><use transform="matrix(0.06790123456790124,0,0,0.06790123456790124,59.61728395061729,0)" xlink:href="#Z"/><use transform="matrix(0.06790123456790124,0,0,0.06790123456790124,64.9814814814815,0)" xlink:href="#W"/><use transform="matrix(0.06790123456790124,0,0,0.06790123456790124,78.56172839506175,0)" xlink:href="#aj"/></g><path fill="#333" d="M106-169C34-169 62-67 57 0H25v-261h32l-1 103c12-21 28-36 61-36 89 0 53 116 60 194h-32v-121c2-32-8-49-39-48" id="aO"/><g id="F"><use transform="matrix(0.06790123456790124,0,0,0.06790123456790124,0,0)" xlink:href="#V"/><use transform="matrix(0.06790123456790124,0,0,0.06790123456790124,13.580246913580249,0)" xlink:href="#aO"/><use transform="matrix(0.06790123456790124,0,0,0.06790123456790124,27.160493827160497,0)" xlink:href="#W"/><use transform="matrix(0.06790123456790124,0,0,0.06790123456790124,40.74074074074075,0)" xlink:href="#Y"/><use transform="matrix(0.06790123456790124,0,0,0.06790123456790124,47.530864197530875,0)" xlink:href="#W"/><use transform="matrix(0.06790123456790124,0,0,0.06790123456790124,61.11111111111112,0)" xlink:href="#aG"/><use transform="matrix(0.06790123456790124,0,0,0.06790123456790124,74.69135802469137,0)" xlink:href="#aH"/><use transform="matrix(0.06790123456790124,0,0,0.06790123456790124,88.27160493827162,0)" xlink:href="#X"/><use transform="matrix(0.06790123456790124,0,0,0.06790123456790124,100.49382716049385,0)" xlink:href="#ag"/><use transform="matrix(0.06790123456790124,0,0,0.06790123456790124,114.0740740740741,0)" xlink:href="#ai"/></g><g id="G"><use transform="matrix(0.06790123456790124,0,0,0.06790123456790124,0,0)" xlink:href="#V"/><use transform="matrix(0.06790123456790124,0,0,0.06790123456790124,13.580246913580249,0)" xlink:href="#aO"/><use transform="matrix(0.06790123456790124,0,0,0.06790123456790124,27.160493827160497,0)" xlink:href="#W"/><use transform="matrix(0.06790123456790124,0,0,0.06790123456790124,40.74074074074075,0)" xlink:href="#Y"/><use transform="matrix(0.06790123456790124,0,0,0.06790123456790124,47.530864197530875,0)" xlink:href="#W"/><use transform="matrix(0.06790123456790124,0,0,0.06790123456790124,61.11111111111112,0)" xlink:href="#aG"/><use transform="matrix(0.06790123456790124,0,0,0.06790123456790124,74.69135802469137,0)" xlink:href="#Z"/><use transform="matrix(0.06790123456790124,0,0,0.06790123456790124,80.05555555555557,0)" xlink:href="#aa"/></g><g id="H"><use transform="matrix(0.06790123456790124,0,0,0.06790123456790124,0,0)" xlink:href="#V"/><use transform="matrix(0.06790123456790124,0,0,0.06790123456790124,13.580246913580249,0)" xlink:href="#aO"/><use transform="matrix(0.06790123456790124,0,0,0.06790123456790124,27.160493827160497,0)" xlink:href="#W"/><use transform="matrix(0.06790123456790124,0,0,0.06790123456790124,40.74074074074075,0)" xlink:href="#Y"/><use transform="matrix(0.06790123456790124,0,0,0.06790123456790124,47.530864197530875,0)" xlink:href="#W"/><use transform="matrix(0.06790123456790124,0,0,0.06790123456790124,61.11111111111112,0)" xlink:href="#X"/></g><g id="I"><use transform="matrix(0.06790123456790124,0,0,0.06790123456790124,0,0)" xlink:href="#aH"/><use transform="matrix(0.06790123456790124,0,0,0.06790123456790124,13.580246913580249,0)" xlink:href="#ai"/><use transform="matrix(0.06790123456790124,0,0,0.06790123456790124,21.660493827160497,0)" xlink:href="#af"/></g></defs></g></svg>